<svg width="24" height="24" viewBox="0 0 24 24" fill="none" xmlns="http://www.w3.org/2000/svg">
<g clip-path="url(#clip0_55_661)">
<path d="M15.514 5.18188C15.6913 5.13335 15.8713 5.09719 16.047 5.04163C16.0737 5.2418 16.0668 5.44499 16.0539 5.64618C15.8739 5.68467 15.6969 5.73924 15.5137 5.75832C15.5146 5.56617 15.5149 5.37403 15.514 5.18188Z" fill="#019DD5"/>
<path d="M14.8506 5.32183C15.0297 5.28869 15.2063 5.24216 15.3855 5.20935C15.3871 5.40618 15.3883 5.60335 15.3845 5.80018C15.2054 5.82495 15.03 5.8765 14.8496 5.89357C14.8499 5.70277 14.8493 5.5123 14.8506 5.32183Z" fill="#019DD5"/>
<path d="M14.1868 5.45201C14.3643 5.42188 14.54 5.37636 14.7198 5.35962C14.7217 5.54741 14.7208 5.73554 14.7214 5.92367C14.5429 5.95714 14.364 5.98961 14.1846 6.01706C14.1865 5.8286 14.1843 5.64014 14.1868 5.45201Z" fill="#019DD5"/>
<path d="M12.8354 5.65517C13.0158 5.6458 13.1931 5.60329 13.3741 5.59827C13.3738 5.7797 13.3735 5.96147 13.3725 6.14323C13.1931 6.168 13.013 6.18441 12.8345 6.21386C12.8367 6.02741 12.8348 5.84129 12.8354 5.65517Z" fill="#019DD5"/>
<path d="M16.1923 5.74765C16.3698 5.70849 16.5443 5.65058 16.7256 5.63049C16.7272 5.80456 16.7256 5.97829 16.7288 6.15236C16.554 6.21195 16.3711 6.23672 16.1932 6.28258C16.1913 6.10416 16.1919 5.92607 16.1923 5.74765Z" fill="#019DD5"/>
<path d="M12.1514 5.75025C12.3349 5.71209 12.5222 5.70506 12.7074 5.67761C12.7058 5.86407 12.7108 6.05085 12.7042 6.23731C12.5191 6.23831 12.3352 6.26375 12.1514 6.28283C12.1517 6.10542 12.1526 5.92767 12.1514 5.75025Z" fill="#019DD5"/>
<path d="M11.4867 5.78917C11.6652 5.78649 11.8444 5.78214 12.021 5.75134C12.0242 5.93478 12.0226 6.11822 12.022 6.302C11.8428 6.31338 11.6627 6.31472 11.4848 6.34351C11.4798 6.15873 11.4776 5.97361 11.4867 5.78917Z" fill="#019DD5"/>
<path d="M10.7981 5.84674C10.9829 5.85009 11.1662 5.81762 11.3507 5.8136C11.3538 5.99235 11.3538 6.17111 11.3485 6.34986C11.1646 6.35187 10.982 6.37999 10.7981 6.38066C10.7966 6.20257 10.7978 6.02482 10.7981 5.84674Z" fill="#019DD5"/>
<path d="M8.77467 5.87744C8.95351 5.88246 9.13266 5.87912 9.31181 5.8838C9.31212 6.05988 9.31244 6.23629 9.31087 6.4127C9.13266 6.41571 8.95445 6.41036 8.77624 6.4127C8.74764 6.23595 8.75236 6.05486 8.77467 5.87744Z" fill="#019DD5"/>
<path d="M9.4451 5.8842C9.62487 5.88152 9.80465 5.88186 9.98443 5.87817C10.002 6.05559 10.0067 6.23535 9.98003 6.41209C9.80182 6.4131 9.62362 6.4141 9.44541 6.41544C9.4429 6.23836 9.44258 6.06128 9.4451 5.8842Z" fill="#019DD5"/>
<path d="M14.8496 6.0265C15.0284 5.99637 15.205 5.95151 15.3855 5.93176C15.3861 6.10181 15.388 6.2722 15.3845 6.44225C15.2066 6.47137 15.0306 6.51589 14.8505 6.52928C14.8493 6.36191 14.8486 6.1942 14.8496 6.0265Z" fill="#019DD5"/>
<path d="M12.836 6.32539C13.4665 6.25945 14.0947 6.16404 14.7189 6.04956C14.7227 6.26212 14.7202 6.47469 14.7218 6.68725C14.5461 6.72909 14.3669 6.7475 14.19 6.78098C14.1928 6.93998 14.1915 7.09899 14.1925 7.25799C14.3685 7.2436 14.5436 7.21615 14.718 7.18669C14.7189 7.23155 14.7199 7.2764 14.7211 7.32126C15.0398 7.30117 15.3617 7.25933 15.6791 7.31657C16.072 7.38252 16.4762 7.54989 16.7273 7.89367C16.9967 8.26725 17.0608 8.75196 17.0715 9.20956C17.0605 9.52188 17.0334 9.84089 16.9244 10.1341C16.8012 10.4461 16.6176 10.733 16.3825 10.9613C16.1933 11.1216 15.9944 11.2749 15.7677 11.37C15.5559 11.4587 15.3444 11.5498 15.126 11.6194C15.1209 11.757 15.1209 11.8946 15.1231 12.0325C15.4899 12.081 15.8529 12.1747 16.1955 12.3237C16.1977 12.5396 16.198 12.7555 16.1958 12.9714C16.4623 12.9744 16.7279 12.9929 16.9941 13.0069C17.139 13.2453 17.2575 13.505 17.3084 13.7855C17.4172 14.3533 17.4166 14.9535 17.2559 15.5101C17.1472 15.8907 16.9093 16.2292 16.5871 16.4334C16.3099 16.6101 15.9906 16.6985 15.6722 16.741C15.3554 16.7845 15.0383 16.7283 14.7215 16.7202C14.7202 17.139 14.7205 17.5578 14.7208 17.9769C14.2773 17.915 13.8367 17.8303 13.3926 17.7747C13.2072 17.7439 13.0189 17.7355 12.8344 17.6984C12.8366 17.297 12.835 16.8957 12.835 16.4946C12.5754 16.4719 12.3155 16.4548 12.0559 16.4314C12.0487 16.4391 12.0342 16.4545 12.027 16.4622C12.0179 16.6975 12.0273 16.9335 12.0229 17.1695C11.8513 17.1608 11.6809 17.1373 11.51 17.1246C11.4842 17.2722 11.4927 17.4229 11.493 17.5725C11.0385 17.5618 10.5856 17.5139 10.1308 17.5223C10.1239 17.1333 10.1296 16.7443 10.128 16.3557C9.84827 16.3249 9.5676 16.335 9.28725 16.3323C9.28662 16.183 9.28631 16.0344 9.28599 15.8854C9.10999 15.8881 8.93398 15.8914 8.75829 15.8894C8.75703 15.4974 8.75923 15.1058 8.75797 14.7138C8.98584 14.7081 9.21433 14.7094 9.44251 14.7108C9.44629 14.0858 9.4422 13.4608 9.44471 12.8355C9.61978 12.8359 9.79453 12.8345 9.9699 12.8355C9.97179 12.6825 9.97179 12.5292 9.97085 12.3763C9.79516 12.3746 9.61978 12.3756 9.44471 12.3739C9.44251 12.1376 9.4444 11.9012 9.44409 11.6649C9.61946 11.6642 9.79453 11.6642 9.97022 11.6639C9.97053 11.5113 9.97085 11.359 9.97148 11.2067C9.79578 11.2046 9.62009 11.2063 9.4444 11.2046C9.44251 10.5797 9.44409 9.95437 9.44409 9.3294C9.21496 9.3294 8.98584 9.32973 8.75703 9.32505C8.7586 9.13391 8.7586 8.94243 8.75703 8.75129C8.93492 8.74527 9.11313 8.75129 9.29134 8.75263C9.29291 8.59932 9.29291 8.44634 9.29134 8.29303C9.11879 8.29303 8.94655 8.286 8.77432 8.28566C8.74729 8.08883 8.74792 7.88631 8.77526 7.68948C9.22628 7.69584 9.67729 7.69316 10.1283 7.68914C10.1267 7.29883 10.1264 6.90885 10.1293 6.51854C10.3244 6.50917 10.5202 6.5162 10.7151 6.50281C10.9555 6.47536 11.1979 6.48908 11.438 6.45594C11.6819 6.44925 11.9239 6.41176 12.1681 6.40941C12.1684 6.6347 12.1672 6.85998 12.169 7.0856C11.9971 7.11974 11.8224 7.11439 11.6486 7.12008C11.6476 7.27707 11.6495 7.4344 11.6486 7.59173C12.0443 7.60345 12.4384 7.5606 12.8335 7.54721C12.8363 7.13983 12.8319 6.73278 12.836 6.32539ZM10.8201 8.2311C10.8141 8.38575 10.8147 8.54074 10.8179 8.69539C10.9958 8.68133 11.1759 8.70108 11.3516 8.66259C11.349 8.51396 11.3494 8.365 11.3516 8.21603C11.1743 8.21804 10.997 8.22875 10.8201 8.2311ZM10.1368 8.26256C10.1359 8.41454 10.1346 8.56651 10.1355 8.71849C10.3131 8.72284 10.4904 8.70744 10.6676 8.69706C10.6661 8.5481 10.6651 8.39881 10.6676 8.24984C10.4907 8.25286 10.3137 8.25687 10.1368 8.26256ZM16.1971 8.32918C16.1987 8.50659 16.1955 8.68434 16.1974 8.86176C16.3671 8.84 16.5371 8.82226 16.7062 8.79481C16.7352 8.61405 16.7166 8.43228 16.7059 8.25118C16.5368 8.28098 16.3662 8.29872 16.1971 8.32918ZM11.8023 9.05758C11.8016 9.7957 11.8016 10.5335 11.8032 11.2716C12.3425 11.2595 12.8844 11.2478 13.4196 11.1658C13.7097 11.1069 14.0064 10.9971 14.2189 10.7688C14.4631 10.5271 14.5467 10.1572 14.5348 9.81277C14.526 9.58916 14.4992 9.33308 14.3273 9.17943C14.1017 8.97691 13.7892 8.97725 13.5102 8.96553C12.9406 8.98997 12.3718 9.02779 11.8023 9.05758ZM9.84607 9.45493C9.84921 9.60389 9.84796 9.75319 9.84764 9.90248C10.0265 9.90215 10.2053 9.9055 10.3845 9.90382C10.3845 9.75519 10.3838 9.60623 10.3848 9.45727C10.2053 9.4566 10.0255 9.4556 9.84607 9.45493ZM16.1974 9.69862C16.1961 9.87637 16.1968 10.0541 16.1977 10.2319C16.3681 10.2212 16.5371 10.1951 16.7081 10.1957C16.7182 10.1234 16.7245 10.0504 16.7223 9.97747C16.7232 9.92022 16.7251 9.86332 16.7279 9.80675L16.7081 9.78298C16.7084 9.73913 16.7091 9.69494 16.71 9.65109C16.5381 9.65645 16.3684 9.6849 16.1974 9.69862ZM10.606 10.035C10.6045 10.188 10.6032 10.341 10.606 10.494C10.7842 10.4946 10.9625 10.4957 11.1407 10.4936C11.1407 10.3413 11.1413 10.189 11.14 10.0367C10.9621 10.0354 10.7839 10.0357 10.606 10.035ZM10.5407 11.7945C10.5429 11.9444 10.5429 12.0944 10.5422 12.2444C10.7198 12.246 10.8977 12.2457 11.0756 12.2457C11.0756 12.09 11.0756 11.9344 11.074 11.7787C10.8961 11.7851 10.7179 11.7737 10.5407 11.7945ZM11.8026 14.9876C12.5179 15.0067 13.2329 15.0991 13.9489 15.0458C14.2082 15.008 14.5102 14.9675 14.6768 14.7252C14.866 14.4416 14.866 14.0654 14.8044 13.737C14.7532 13.427 14.5354 13.1686 14.2692 13.0431C13.9143 12.8693 13.5183 12.8442 13.1349 12.8138C12.6911 12.8027 12.2479 12.7739 11.8038 12.7806C11.8007 13.5164 11.8035 14.2518 11.8026 14.9876ZM10.0023 13.5452C10.0001 13.6992 9.99976 13.8532 10.0042 14.0071C10.1817 14.0008 10.3603 14.0148 10.5369 13.9887C10.5341 13.8398 10.5356 13.6905 10.5334 13.5415C10.3565 13.5408 10.1792 13.5449 10.0023 13.5452ZM10.0004 14.141C10.0023 14.2893 10.002 14.4376 10.0026 14.5862C10.1799 14.5792 10.3571 14.5826 10.5347 14.5832C10.5363 14.4359 10.5356 14.2887 10.5372 14.1417C10.3596 14.1099 10.178 14.1149 10.0004 14.141ZM16.1974 14.4838C16.1955 14.6622 16.1968 14.8403 16.1964 15.0187C16.3659 15.0499 16.5381 15.0556 16.7075 15.0877C16.7339 14.9076 16.7304 14.7242 16.7072 14.5441C16.5378 14.5176 16.3665 14.5129 16.1974 14.4838ZM9.46263 15.3136C9.46294 15.4633 9.46326 15.6132 9.46169 15.7629C9.63549 15.7582 9.8093 15.7568 9.9831 15.7548C9.9831 15.5988 9.98531 15.4432 9.98059 15.2875C9.80898 15.3123 9.63549 15.3163 9.46263 15.3136ZM12.1807 15.3475C12.1826 15.4954 12.1822 15.6437 12.1826 15.7923C12.3595 15.8128 12.5374 15.8208 12.7153 15.8251C12.715 15.6691 12.7159 15.5132 12.7143 15.3575C12.5365 15.3511 12.3586 15.3434 12.1807 15.3475ZM13.5516 15.4134C13.5274 15.5701 13.5303 15.7301 13.5526 15.8871C13.7248 15.8847 13.8945 15.9195 14.0665 15.9276C14.0683 15.7689 14.069 15.6106 14.0671 15.4522C13.8952 15.4362 13.7236 15.4208 13.5516 15.4134ZM10.8185 16.4615C10.8173 16.6145 10.8172 16.7674 10.8194 16.9204C10.9923 16.9191 11.1652 16.9181 11.338 16.9244C11.3597 16.7721 11.3503 16.6175 11.3497 16.4642C11.1724 16.4605 10.9955 16.4605 10.8185 16.4615Z" fill="#019DD5"/>
<path d="M16.1914 6.41643C16.3687 6.37291 16.5475 6.33475 16.7273 6.30396C16.7267 6.48304 16.726 6.66213 16.7263 6.84089C16.5491 6.88072 16.3693 6.90717 16.1933 6.95269C16.1901 6.77394 16.192 6.59518 16.1914 6.41643Z" fill="#019DD5"/>
<path d="M15.5128 6.55129C15.6901 6.50811 15.8708 6.48234 16.0487 6.44116C16.0638 6.61925 16.0776 6.80034 16.0478 6.97776C15.8693 7.00554 15.6926 7.0494 15.5122 7.0581C15.5141 6.88905 15.5141 6.72034 15.5128 6.55129Z" fill="#019DD5"/>
<path d="M9.44287 6.5349C9.62171 6.51381 9.8018 6.52653 9.98126 6.51917C10.0055 6.67583 9.99195 6.83383 9.98346 6.99116C9.80368 6.99015 9.62391 6.99417 9.44413 6.99049C9.44413 6.83851 9.44381 6.68654 9.44287 6.5349Z" fill="#019DD5"/>
<path d="M14.8488 6.66919C15.027 6.63237 15.2064 6.60257 15.3859 6.57178C15.3865 6.74417 15.3862 6.91657 15.3865 7.08929C15.2083 7.1211 15.0295 7.15122 14.8494 7.16629C14.8488 7.00025 14.8484 6.83489 14.8488 6.66919Z" fill="#019DD5"/>
<path d="M8.75861 7.11271C8.94341 7.11104 9.12822 7.11505 9.31303 7.11539C9.31114 7.27172 9.31208 7.42804 9.31051 7.58437C9.13168 7.58403 8.95284 7.57767 8.77401 7.5837C8.74792 7.42804 8.76081 7.26971 8.75861 7.11271Z" fill="#019DD5"/>
<path d="M9.44428 7.11436C9.62595 7.11871 9.80793 7.10465 9.98959 7.1167C10.0081 7.27068 9.99933 7.42768 9.98393 7.582C9.80447 7.57865 9.625 7.58501 9.44554 7.58468C9.44271 7.42801 9.44428 7.27102 9.44428 7.11436Z" fill="#019DD5"/>
<path d="M6.73533 7.61353C6.91385 7.62056 7.09269 7.62658 7.27152 7.63026C7.27561 7.79261 7.27466 7.95497 7.27372 8.11732C7.09489 8.09255 6.91448 8.09422 6.7347 8.08451C6.73407 7.92752 6.73439 7.77052 6.73533 7.61353Z" fill="#019DD5"/>
<path d="M7.40527 7.65263C7.58285 7.65196 7.76043 7.65899 7.93801 7.65933C7.97164 7.81565 7.93675 7.97499 7.94272 8.13333C7.76357 8.13031 7.58442 8.12663 7.40527 8.11927C7.40559 7.96361 7.40527 7.80829 7.40527 7.65263Z" fill="#019DD5"/>
<path d="M8.08447 7.68215C8.26582 7.68115 8.44717 7.6855 8.62884 7.68985C8.62915 7.84651 8.62884 8.00284 8.62852 8.1595C8.4478 8.15314 8.26739 8.15214 8.08699 8.14845C8.08604 7.99313 8.08573 7.83781 8.08447 7.68215Z" fill="#019DD5"/>
<path d="M7.40475 8.24849C7.58767 8.24481 7.77059 8.25284 7.9532 8.2582C7.95351 8.33084 7.95383 8.40315 7.95351 8.47612C7.95414 8.5588 7.95509 8.64148 7.95666 8.7245C7.77248 8.72115 7.58673 8.73053 7.40381 8.70107C7.40475 8.5501 7.40538 8.39946 7.40475 8.24849Z" fill="#019DD5"/>
<path d="M6.73399 9.26841C6.73399 9.11074 6.73336 8.95308 6.73524 8.79541C6.91534 8.79909 7.09417 8.82621 7.27426 8.82386C7.27301 8.98052 7.27238 9.13719 7.27552 9.29351C7.0948 9.28816 6.91314 9.29753 6.73399 9.26841Z" fill="#019DD5"/>
<path d="M8.08651 8.85168C8.26755 8.85436 8.44827 8.85671 8.6293 8.85804C8.62836 9.01404 8.62805 9.17003 8.62993 9.32602C8.4489 9.32368 8.26755 9.32301 8.08651 9.31999C8.08494 9.164 8.08526 9.00768 8.08651 8.85168Z" fill="#019DD5"/>
<path d="M6.7334 9.8667C6.73497 9.70904 6.73466 9.55171 6.73591 9.39404C6.91569 9.40342 7.09704 9.39003 7.27556 9.41881C7.27305 9.57581 7.27305 9.73281 7.27462 9.89014C7.09358 9.89616 6.91381 9.86972 6.7334 9.8667Z" fill="#019DD5"/>
<path d="M8.08666 9.43286C8.26676 9.4342 8.44685 9.43721 8.62694 9.43654C8.63165 9.59287 8.6282 9.74953 8.6304 9.90619C8.44905 9.90351 8.2677 9.90552 8.08666 9.90218C8.08603 9.74551 8.08541 9.58919 8.08666 9.43286Z" fill="#019DD5"/>
<path d="M8.75611 9.45762C8.9406 9.41578 9.12698 9.45796 9.31304 9.45729C9.3121 9.61194 9.31304 9.76693 9.31084 9.92191C9.13861 9.91689 8.96574 9.9276 8.79382 9.91488C8.78597 9.90652 8.76994 9.89011 8.76208 9.88174C8.74982 9.74082 8.76019 9.59888 8.75611 9.45762Z" fill="#019DD5"/>
<path d="M7.42356 10.4929C7.39307 10.3313 7.39999 10.1645 7.4201 10.0022C7.59831 10.0025 7.77557 10.0256 7.95378 10.0253C7.95535 10.1813 7.96226 10.3383 7.94152 10.4933C7.76897 10.4913 7.59611 10.4879 7.42356 10.4929Z" fill="#019DD5"/>
<path d="M8.77169 10.0304C8.95178 10.0334 9.13188 10.0317 9.31197 10.0317C9.31165 10.1871 9.31354 10.3427 9.31197 10.498C9.13188 10.4977 8.95178 10.4964 8.77201 10.498C8.77138 10.342 8.77138 10.1861 8.77169 10.0304Z" fill="#019DD5"/>
<path d="M6.73514 10.5887C6.91429 10.5931 7.09344 10.5961 7.27291 10.5961C7.27416 10.7538 7.27448 10.9114 7.27354 11.0691C7.09407 11.0658 6.91492 11.0654 6.73577 11.0644C6.7342 10.9057 6.73514 10.7471 6.73514 10.5887Z" fill="#019DD5"/>
<path d="M7.40395 10.598C7.58216 10.601 7.76005 10.5994 7.93825 10.6047C7.94831 10.7597 7.95837 10.915 7.95366 11.0707C7.77011 11.0724 7.58656 11.0717 7.40332 11.0677C7.40615 10.911 7.40678 10.7543 7.40395 10.598Z" fill="#019DD5"/>
<path d="M8.09097 11.0914C8.08217 10.9291 8.08406 10.7667 8.08657 10.6044C8.26603 10.6094 8.4455 10.6067 8.62496 10.6077C8.63093 10.7687 8.63093 10.9301 8.6237 11.0914C8.44613 11.0914 8.26855 11.0908 8.09097 11.0914Z" fill="#019DD5"/>
<path d="M8.08447 11.1969C8.26582 11.1969 8.44717 11.1949 8.62852 11.1979C8.62915 11.3543 8.62884 11.5109 8.62884 11.6673C8.44811 11.6676 8.26771 11.6656 8.08699 11.6646C8.08573 11.5086 8.08667 11.3529 8.08447 11.1969Z" fill="#019DD5"/>
<path d="M8.76577 11.2019C8.94838 11.1983 9.13099 11.1996 9.31391 11.2013C9.31202 11.3566 9.31202 11.5122 9.31328 11.6679C9.13319 11.6682 8.95341 11.6666 8.77363 11.6702C8.74974 11.5153 8.75666 11.3579 8.76577 11.2019Z" fill="#019DD5"/>
<path d="M7.40521 11.7791C7.58341 11.7778 7.76162 11.7804 7.93983 11.7771C7.96843 11.9321 7.93825 12.0891 7.94328 12.2454C7.76413 12.2655 7.58184 12.2792 7.40332 12.2444C7.40583 12.0891 7.40458 11.9341 7.40521 11.7791Z" fill="#019DD5"/>
<path d="M8.76207 11.8152C8.76867 11.8072 8.78219 11.7904 8.7891 11.7821C8.96291 11.7697 9.13766 11.7801 9.31209 11.7801C9.31272 11.9351 9.31241 12.09 9.31146 12.245C9.12697 12.2487 8.94248 12.2534 8.7583 12.2427C8.7605 12.1004 8.75044 11.9575 8.76207 11.8152Z" fill="#019DD5"/>
<path d="M8.08496 12.3706C8.26568 12.3709 8.44672 12.3729 8.62775 12.3713C8.63027 12.5269 8.62901 12.6823 8.62775 12.8379C8.44703 12.8429 8.26631 12.8429 8.08559 12.8426C8.08559 12.6853 8.08559 12.5279 8.08496 12.3706Z" fill="#019DD5"/>
<path d="M8.75889 12.3736C8.94307 12.3699 9.12724 12.3706 9.31142 12.3713C9.31362 12.5276 9.31299 12.6839 9.31142 12.8402C9.13196 12.8389 8.95249 12.8379 8.77334 12.8412C8.75103 12.6862 8.75952 12.5296 8.75889 12.3736Z" fill="#019DD5"/>
<path d="M6.73469 12.9714C6.91478 12.9728 7.09487 12.9684 7.27528 12.9697C7.27402 13.1271 7.27402 13.2844 7.27434 13.4417C7.09425 13.4441 6.91447 13.4461 6.73438 13.4474C6.73532 13.2888 6.735 13.1301 6.73469 12.9714Z" fill="#019DD5"/>
<path d="M7.4043 12.9708C7.58313 12.9671 7.76228 12.9691 7.94049 12.9493C7.94426 13.1117 7.94332 13.274 7.94143 13.4364C7.7626 13.4387 7.58376 13.4407 7.40524 13.4391C7.40524 13.2827 7.40618 13.1268 7.4043 12.9708Z" fill="#019DD5"/>
<path d="M8.09033 13.4381C8.08153 13.2754 8.08405 13.1124 8.08876 12.9497C8.26822 12.9527 8.44769 12.9487 8.62747 12.95C8.63061 13.1057 8.62935 13.2617 8.62904 13.4177C8.44895 13.409 8.27011 13.4351 8.09033 13.4381Z" fill="#019DD5"/>
<path d="M8.75765 13.5438C8.94151 13.5394 9.12569 13.5377 9.30955 13.5367C9.31332 13.6937 9.31364 13.8507 9.31144 14.0077C9.13292 14.0061 8.9544 14.0054 8.77619 14.0124C8.74822 13.8578 8.76047 13.7001 8.75765 13.5438Z" fill="#019DD5"/>
<path d="M6.73389 13.5743C6.91304 13.5505 7.09313 13.5572 7.27322 13.5529C7.27354 13.7099 7.27448 13.8668 7.27511 14.0242C7.09627 14.0526 6.91524 14.0416 6.73546 14.0459C6.73326 13.8886 6.73483 13.7313 6.73389 13.5743Z" fill="#019DD5"/>
<path d="M7.40569 13.5509C7.5883 13.5475 7.77122 13.5462 7.95414 13.5475C7.95509 13.7028 7.95854 13.8588 7.94754 14.0141C7.76619 14.0175 7.58484 14.0198 7.40381 14.0202C7.40569 13.8638 7.40475 13.7072 7.40569 13.5509Z" fill="#019DD5"/>
<path d="M8.08748 14.1239C8.26725 14.1209 8.44735 14.1212 8.62744 14.1199C8.62932 14.2759 8.62932 14.4319 8.62932 14.5882C8.44766 14.5909 8.26631 14.5932 8.08496 14.5942C8.0859 14.4375 8.08496 14.2806 8.08748 14.1239Z" fill="#019DD5"/>
<path d="M7.4043 14.1491C7.58848 14.1393 7.77297 14.1373 7.95715 14.1414C7.95369 14.297 7.94143 14.4523 7.93986 14.6083C7.76165 14.6093 7.58376 14.616 7.40555 14.6147C7.40461 14.4594 7.40493 14.3044 7.4043 14.1491Z" fill="#019DD5"/>
<path d="M8.7585 14.5868C8.75944 14.4302 8.74844 14.2725 8.77295 14.1172C8.95273 14.1205 9.1322 14.1175 9.31197 14.1179C9.31323 14.2735 9.31323 14.4292 9.31323 14.5848C9.12811 14.5892 8.9433 14.5885 8.7585 14.5868Z" fill="#019DD5"/>
<path d="M7.40423 14.7429C7.58149 14.7127 7.76159 14.7281 7.94042 14.7188C7.95771 14.8747 7.95739 15.0327 7.94576 15.1894C7.76441 15.1837 7.58338 15.2169 7.40234 15.1994C7.40643 15.0471 7.4058 14.8952 7.40423 14.7429Z" fill="#019DD5"/>
<path d="M7.40565 15.3216C7.58385 15.3206 7.76206 15.3153 7.94026 15.3123C7.95346 15.4686 7.96478 15.6269 7.93932 15.7832C7.76143 15.7863 7.58354 15.793 7.40565 15.7926C7.40407 15.6356 7.40502 15.4786 7.40565 15.3216Z" fill="#019DD5"/>
<path d="M8.08496 15.3123C8.26442 15.2818 8.4464 15.2935 8.62744 15.2892C8.62901 15.4452 8.62775 15.6015 8.63027 15.7578C8.44923 15.7555 8.26851 15.7675 8.08842 15.7853C8.08496 15.6276 8.08779 15.4699 8.08496 15.3123Z" fill="#019DD5"/>
<path d="M8.08714 15.8887C8.26786 15.8864 8.44858 15.8831 8.6293 15.8817C8.62867 16.0377 8.6293 16.1937 8.62679 16.3497C8.44638 16.3517 8.26629 16.3524 8.08619 16.3587C8.08588 16.2021 8.08557 16.0454 8.08714 15.8887Z" fill="#019DD5"/>
<path d="M6.73583 15.954C6.9156 15.9439 7.09444 15.9208 7.27453 15.9222C7.2739 16.0798 7.27422 16.2372 7.2739 16.3948C7.09475 16.4099 6.91529 16.4213 6.73583 16.428C6.73331 16.27 6.73457 16.112 6.73583 15.954Z" fill="#019DD5"/>
<path d="M9.44434 16.4578C9.62411 16.4558 9.80389 16.4558 9.98399 16.4608C9.98399 16.6168 10.0003 16.7725 9.98587 16.9281C9.80546 16.9224 9.62474 16.9248 9.44434 16.9244C9.44496 16.7688 9.44465 16.6135 9.44434 16.4578Z" fill="#019DD5"/>
<path d="M8.08447 16.4832C8.26457 16.4518 8.4478 16.4662 8.62946 16.4638C8.63072 16.6188 8.62946 16.7741 8.62821 16.9291C8.44811 16.9335 8.26708 16.9278 8.08762 16.9492C8.08573 16.7939 8.0851 16.6386 8.08447 16.4832Z" fill="#019DD5"/>
<path d="M8.75796 16.924C8.76016 16.7687 8.74916 16.612 8.77336 16.4581C8.95314 16.4574 9.13261 16.4564 9.31239 16.4561C9.31207 16.6117 9.3127 16.7677 9.31333 16.9234C9.12821 16.9237 8.94309 16.9264 8.75796 16.924Z" fill="#019DD5"/>
<path d="M6.73487 16.5545C6.91339 16.5277 7.09411 16.5217 7.2742 16.5187C7.27483 16.676 7.27609 16.8333 7.272 16.991C7.09222 16.992 6.9137 17.0151 6.73455 17.0268C6.73392 16.8692 6.73518 16.7118 6.73487 16.5545Z" fill="#019DD5"/>
<path d="M7.40866 16.5345C7.41683 16.5268 7.43381 16.511 7.44229 16.5033C7.60761 16.4869 7.77419 16.4933 7.94014 16.4856C7.95585 16.6419 7.96403 16.8003 7.93825 16.9562C7.75973 16.9569 7.58184 16.971 7.40332 16.9703C7.40835 16.825 7.40049 16.6794 7.40866 16.5345Z" fill="#019DD5"/>
<path d="M12.1691 16.5546C12.3489 16.5659 12.5271 16.5971 12.7072 16.5988C12.7081 16.7624 12.709 16.9265 12.7072 17.0905C12.5233 17.0547 12.3341 17.0724 12.1518 17.0266C12.1505 16.8689 12.1474 16.7109 12.1691 16.5546Z" fill="#019DD5"/>
<path d="M14.8489 17.3646C14.8498 17.1962 14.847 17.0275 14.8502 16.8591C15.029 16.8842 15.2069 16.916 15.3857 16.9415C15.3895 17.1159 15.3876 17.2906 15.3864 17.465C15.2085 17.4238 15.0262 17.4095 14.8489 17.3646Z" fill="#019DD5"/>
<path d="M15.5133 16.9834C15.6997 16.9878 15.8826 17.0299 16.0649 17.0671C16.0589 17.2442 16.0756 17.4226 16.0467 17.5983C15.915 17.5595 15.7808 17.5324 15.6453 17.517C15.601 17.5053 15.5567 17.4942 15.5127 17.4838C15.514 17.3168 15.514 17.1501 15.5133 16.9834Z" fill="#019DD5"/>
<path d="M8.08631 17.0633C8.26672 17.0556 8.44744 17.0563 8.62816 17.0522C8.63005 17.2086 8.62973 17.3649 8.62722 17.5216C8.44713 17.5232 8.26735 17.5242 8.08757 17.5326C8.08568 17.3763 8.08569 17.2196 8.08631 17.0633Z" fill="#019DD5"/>
<path d="M9.44287 17.049C9.61951 17.0212 9.79866 17.0396 9.97655 17.0336C9.99823 17.1886 10.0011 17.3452 9.99823 17.5019C9.81343 17.5032 9.62831 17.5022 9.4435 17.5009C9.44381 17.3499 9.44381 17.1993 9.44287 17.049Z" fill="#019DD5"/>
<path d="M16.193 17.0868C16.3709 17.1253 16.5516 17.1497 16.728 17.1979C16.7245 17.3763 16.7264 17.5551 16.7264 17.7339C16.5472 17.7021 16.3703 17.6592 16.1924 17.6207C16.1911 17.4426 16.1908 17.2649 16.193 17.0868Z" fill="#019DD5"/>
<path d="M12.1521 17.1584C12.3382 17.1591 12.522 17.1956 12.7078 17.2046C12.7087 17.3647 12.7075 17.5247 12.7081 17.685C12.5217 17.6656 12.3341 17.6636 12.1499 17.6268C12.1534 17.4704 12.1524 17.3144 12.1521 17.1584Z" fill="#019DD5"/>
<path d="M14.8513 18.0181C14.8481 17.8437 14.8488 17.6693 14.851 17.4949C15.0282 17.5334 15.209 17.5538 15.3859 17.5953C15.3865 17.766 15.3862 17.9367 15.3859 18.1071C15.2061 18.0864 15.032 18.0291 14.8513 18.0181Z" fill="#019DD5"/>
<path d="M9.44455 17.6234C9.62496 17.6248 9.80568 17.6278 9.9864 17.6268C9.98828 17.7911 9.98451 17.9558 9.99268 18.1205C9.98797 18.1289 9.97885 18.146 9.97445 18.1543C9.79656 18.159 9.61804 18.163 9.44141 18.1386C9.44455 17.9669 9.44392 17.7951 9.44455 17.6234Z" fill="#019DD5"/>
<path d="M10.1277 18.1623C10.1277 17.9859 10.1271 17.8094 10.1277 17.6334C10.3078 17.6354 10.4895 17.6243 10.6677 17.6585C10.6664 17.8309 10.6661 18.0029 10.6683 18.1753C10.4879 18.1683 10.3078 18.1626 10.1277 18.1623Z" fill="#019DD5"/>
<path d="M10.7984 17.6613C10.9832 17.6626 11.168 17.669 11.3519 17.6931C11.3515 17.8648 11.349 18.0368 11.3547 18.2089C11.1696 18.2273 10.9841 18.1845 10.7981 18.1918C10.7968 18.0151 10.7974 17.838 10.7984 17.6613Z" fill="#019DD5"/>
<path d="M11.4825 17.693C11.6619 17.7057 11.8401 17.7338 12.0205 17.7348C12.0252 17.9149 12.0227 18.095 12.0218 18.2751C11.8417 18.2644 11.661 18.259 11.4828 18.2272C11.484 18.0492 11.4821 17.8711 11.4825 17.693Z" fill="#019DD5"/>
<path d="M12.8362 17.8242C13.0166 17.844 13.197 17.8664 13.3762 17.8969C13.3737 18.0793 13.374 18.2614 13.3746 18.4442C13.1942 18.4237 13.0138 18.401 12.835 18.3675C12.8353 18.1864 12.8359 18.0053 12.8362 17.8242Z" fill="#019DD5"/>
<path d="M13.5223 17.9193C13.7018 17.936 13.88 17.9642 14.0569 18.0003C14.0566 18.1824 14.056 18.3642 14.0582 18.5463C13.8784 18.5359 13.7018 18.4994 13.5248 18.468C13.5185 18.4167 13.5116 18.3655 13.5044 18.315C13.5066 18.1828 13.5198 18.0512 13.5223 17.9193Z" fill="#019DD5"/>
<path d="M14.8515 18.7214C14.8478 18.5249 14.8487 18.3284 14.8522 18.1322C15.0298 18.168 15.2076 18.2038 15.3855 18.239C15.3881 18.4358 15.3877 18.633 15.3852 18.8298C15.2083 18.7893 15.032 18.7418 14.8515 18.7214Z" fill="#019DD5"/>
<path d="M15.5127 18.2852C15.6935 18.2885 15.8651 18.3558 16.0436 18.3782C16.0819 18.5764 16.0574 18.7799 16.0634 18.9808C15.8861 18.9553 15.712 18.9078 15.5391 18.8599C15.5335 18.8532 15.5215 18.8398 15.5159 18.8331C15.5087 18.6507 15.5165 18.4676 15.5127 18.2852Z" fill="#019DD5"/>
</g>
<defs>
<clipPath id="clip0_55_661">
<rect width="10.7692" height="14" fill="white" transform="translate(6.61523 5)"/>
</clipPath>
</defs>
</svg>
