<svg
    width="23"
    height="13"
    viewBox="0 0 23 13"
    fill="none"
    xmlns="http://www.w3.org/2000/svg"
    >
    <path
        d="M15.9055 12.6654H14.3955C13.9855 12.6654 13.6455 12.3254 13.6455 11.9154C13.6455 11.5054 13.9855 11.1654 14.3955 11.1654H15.9055C18.5255 11.1654 20.6555 9.03541 20.6555 6.41541C20.6555 3.79541 18.5255 1.66541 15.9055 1.66541H14.4055C13.9955 1.66541 13.6555 1.32541 13.6555 0.915405C13.6555 0.505405 13.9855 0.165405 14.4055 0.165405H15.9055C19.3555 0.165405 22.1555 2.96541 22.1555 6.41541C22.1555 9.86541 19.3555 12.6654 15.9055 12.6654Z"
        fill="currentColor"
    />
    <path
        d="M8.40552 12.6654H6.90552C3.45552 12.6654 0.655518 9.86541 0.655518 6.41541C0.655518 2.96541 3.45552 0.165405 6.90552 0.165405H8.40552C8.81552 0.165405 9.15552 0.505405 9.15552 0.915405C9.15552 1.32541 8.81552 1.66541 8.40552 1.66541H6.90552C4.28552 1.66541 2.15552 3.79541 2.15552 6.41541C2.15552 9.03541 4.28552 11.1654 6.90552 11.1654H8.40552C8.81552 11.1654 9.15552 11.5054 9.15552 11.9154C9.15552 12.3254 8.81552 12.6654 8.40552 12.6654Z"
        fill="currentColor"
    />
    <path
        d="M15.4055 7.16541H7.40552C6.99552 7.16541 6.65552 6.82541 6.65552 6.41541C6.65552 6.00541 6.99552 5.66541 7.40552 5.66541H15.4055C15.8155 5.66541 16.1555 6.00541 16.1555 6.41541C16.1555 6.82541 15.8155 7.16541 15.4055 7.16541Z"
        fill="currentColor"
    />
</svg>