<svg width="20" height="20" viewBox="0 0 20 20" fill="none" xmlns="http://www.w3.org/2000/svg">
<path d="M14.8516 5.54901C13.9593 5.13959 13.0024 4.83794 12.002 4.66515C11.9837 4.66182 11.9655 4.67016 11.9562 4.68681C11.8331 4.9057 11.6968 5.19122 11.6013 5.41566C10.5253 5.25455 9.4547 5.25455 8.40071 5.41566C8.30522 5.18624 8.16397 4.9057 8.04035 4.68681C8.03097 4.6707 8.01276 4.66236 7.99454 4.66515C6.99464 4.83736 6.03777 5.13902 5.14489 5.54901C5.13715 5.55235 5.13053 5.5579 5.12613 5.56512C3.31116 8.27666 2.81395 10.9216 3.05785 13.5337C3.05895 13.5464 3.06614 13.5586 3.07606 13.5664C4.27353 14.4458 5.4335 14.9797 6.5719 15.3336C6.59012 15.3391 6.60942 15.3325 6.62101 15.3175C6.8903 14.9497 7.13035 14.562 7.33616 14.1542C7.3483 14.1303 7.33671 14.102 7.31188 14.0925C6.93112 13.9481 6.56857 13.772 6.2198 13.572C6.19221 13.5559 6.19 13.5165 6.2154 13.4976C6.28879 13.4426 6.36221 13.3853 6.43229 13.3276C6.44498 13.317 6.46264 13.3148 6.47754 13.3214C8.76873 14.3675 11.2492 14.3675 13.5134 13.3214C13.5283 13.3142 13.5459 13.3165 13.5592 13.327C13.6293 13.3848 13.7027 13.4425 13.7766 13.4975C13.802 13.5164 13.8003 13.5559 13.7727 13.572C13.424 13.7759 13.0614 13.9481 12.6801 14.092C12.6553 14.1014 12.6442 14.1303 12.6564 14.1542C12.8667 14.5614 13.1067 14.9491 13.371 15.3169C13.3821 15.3325 13.4019 15.3391 13.4201 15.3336C14.564 14.9797 15.724 14.4458 16.9215 13.5664C16.932 13.5586 16.9386 13.547 16.9397 13.5342C17.2316 10.5143 16.4508 7.89111 14.8698 5.56566C14.8659 5.5579 14.8593 5.55235 14.8516 5.54901ZM7.67837 11.9432C6.98857 11.9432 6.42017 11.3099 6.42017 10.5321C6.42017 9.75437 6.97752 9.12106 7.67837 9.12106C8.38469 9.12106 8.94758 9.75992 8.93654 10.5321C8.93654 11.3099 8.37916 11.9432 7.67837 11.9432ZM12.3303 11.9432C11.6405 11.9432 11.0721 11.3099 11.0721 10.5321C11.0721 9.75437 11.6295 9.12106 12.3303 9.12106C13.0366 9.12106 13.5995 9.75992 13.5885 10.5321C13.5885 11.3099 13.0366 11.9432 12.3303 11.9432Z" fill="white"/>
</svg>
