<svg width="24" height="24" viewBox="0 0 24 24" fill="none" xmlns="http://www.w3.org/2000/svg">
<path d="M8.15007 6.22498H15.8501C16.4917 6.22498 17.0167 6.74998 17.0167 7.39164V8.67498C17.0167 9.14164 16.7251 9.72498 16.4334 10.0166L13.9251 12.2333C13.5751 12.525 13.3417 13.1083 13.3417 13.575V16.0833C13.3417 16.4333 13.1084 16.9 12.8167 17.075L12.0001 17.6C11.2417 18.0666 10.1917 17.5416 10.1917 16.6083V13.5166C10.1917 13.1083 9.9584 12.5833 9.72507 12.2916L7.5084 9.95831C7.21673 9.66664 6.9834 9.14164 6.9834 8.79164V7.44998C6.9834 6.74998 7.5084 6.22498 8.15007 6.22498Z" stroke="white" stroke-miterlimit="10" stroke-linecap="round" stroke-linejoin="round"/>
<path d="M11.3758 6.22498L8.5 10.8333" stroke="white" stroke-miterlimit="10" stroke-linecap="round" stroke-linejoin="round"/>
</svg>
