<svg width="24" height="24" viewBox="0 0 24 24" fill="none" xmlns="http://www.w3.org/2000/svg">
<path d="M20.3333 9.10002V5.31669C20.3333 4.14169 19.8 3.66669 18.475 3.66669H15.1083C13.7833 3.66669 13.25 4.14169 13.25 5.31669V9.09169C13.25 10.275 13.7833 10.7417 15.1083 10.7417H18.475C19.8 10.75 20.3333 10.275 20.3333 9.10002Z" fill="white"/>
<path d="M20.3333 18.475V15.1083C20.3333 13.7833 19.8 13.25 18.475 13.25H15.1083C13.7833 13.25 13.25 13.7833 13.25 15.1083V18.475C13.25 19.8 13.7833 20.3333 15.1083 20.3333H18.475C19.8 20.3333 20.3333 19.8 20.3333 18.475Z" fill="white"/>
<path d="M10.7498 9.10002V5.31669C10.7498 4.14169 10.2165 3.66669 8.8915 3.66669H5.52484C4.19984 3.66669 3.6665 4.14169 3.6665 5.31669V9.09169C3.6665 10.275 4.19984 10.7417 5.52484 10.7417H8.8915C10.2165 10.75 10.7498 10.275 10.7498 9.10002Z" fill="white"/>
<path d="M10.7498 18.475V15.1083C10.7498 13.7833 10.2165 13.25 8.8915 13.25H5.52484C4.19984 13.25 3.6665 13.7833 3.6665 15.1083V18.475C3.6665 19.8 4.19984 20.3333 5.52484 20.3333H8.8915C10.2165 20.3333 10.7498 19.8 10.7498 18.475Z" fill="white"/>
</svg>
