<svg width="24" height="24" viewBox="0 0 24 24" fill="none" xmlns="http://www.w3.org/2000/svg">
<path d="M8.45817 3.66669V8.50002H3.6665C3.6665 5.49169 5.45817 3.68335 8.45817 3.66669Z" fill="white"/>
<path d="M20.3332 8.50002H15.5415V3.66669C18.5415 3.68335 20.3332 5.49169 20.3332 8.50002Z" fill="white"/>
<path d="M20.3332 15.5833C20.2998 18.5416 18.5165 20.3166 15.5415 20.3333V15.5833H20.3332Z" fill="white"/>
<path d="M8.45817 15.5833V20.3333C5.48317 20.3166 3.69984 18.5416 3.6665 15.5833H8.45817Z" fill="white"/>
<path d="M8.45817 9.75H3.6665V14.3333H8.45817V9.75Z" fill="white"/>
<path d="M20.3332 9.75H15.5415V14.3333H20.3332V9.75Z" fill="white"/>
<path d="M14.2918 9.75H9.7085V14.3333H14.2918V9.75Z" fill="white"/>
<path d="M14.2918 3.66669H9.7085V8.50002H14.2918V3.66669Z" fill="white"/>
<path d="M14.2918 15.5833H9.7085V20.3333H14.2918V15.5833Z" fill="white"/>
</svg>
