<svg width="24" height="24" viewBox="0 0 24 24" fill="none" xmlns="http://www.w3.org/2000/svg">
<path d="M12.5887 6.70327L16.0304 8.2316C17.0221 8.6691 17.0221 9.39244 16.0304 9.82994L12.5887 11.3583C12.1979 11.5333 11.5562 11.5333 11.1654 11.3583L7.72373 9.82994C6.73206 9.39244 6.73206 8.6691 7.72373 8.2316L11.1654 6.70327C11.5562 6.52827 12.1979 6.52827 12.5887 6.70327Z" stroke="white" stroke-linecap="round" stroke-linejoin="round"/>
<path d="M6.75 11.4166C6.75 11.9066 7.1175 12.4725 7.56667 12.6708L11.5275 14.4325C11.8308 14.5666 12.175 14.5666 12.4725 14.4325L16.4333 12.6708C16.8825 12.4725 17.25 11.9066 17.25 11.4166" stroke="white" stroke-linecap="round" stroke-linejoin="round"/>
<path d="M6.75 14.3334C6.75 14.8759 7.07083 15.3659 7.56667 15.5875L11.5275 17.3492C11.8308 17.4834 12.175 17.4834 12.4725 17.3492L16.4333 15.5875C16.9292 15.3659 17.25 14.8759 17.25 14.3334" stroke="white" stroke-linecap="round" stroke-linejoin="round"/>
</svg>
