<svg width="24" height="24" viewBox="0 0 24 24" fill="none" xmlns="http://www.w3.org/2000/svg">
<path d="M5.36297 11.6667H4.86297H5.36297ZM5.36297 13L5.01333 13.3574C5.20766 13.5475 5.51828 13.5475 5.71262 13.3574L5.36297 13ZM7.07559 12.0241C7.27299 11.831 7.27646 11.5144 7.08336 11.317C6.89026 11.1196 6.57369 11.1161 6.3763 11.3092L7.07559 12.0241ZM4.34965 11.3092C4.15225 11.1161 3.83569 11.1196 3.64258 11.317C3.44948 11.5144 3.45296 11.831 3.65035 12.0241L4.34965 11.3092ZM17.5757 8.46455C17.7218 8.69887 18.0302 8.77039 18.2645 8.62428C18.4989 8.47817 18.5704 8.16978 18.4243 7.93545L17.5757 8.46455ZM12.1778 4.5C8.14836 4.5 4.86297 7.69832 4.86297 11.6667H5.86297C5.86297 8.27122 8.67981 5.5 12.1778 5.5V4.5ZM4.86297 11.6667L4.86297 13H5.86297L5.86297 11.6667H4.86297ZM5.71262 13.3574L7.07559 12.0241L6.3763 11.3092L5.01333 12.6426L5.71262 13.3574ZM5.71262 12.6426L4.34965 11.3092L3.65035 12.0241L5.01333 13.3574L5.71262 12.6426ZM18.4243 7.93545C17.1385 5.87329 14.8199 4.5 12.1778 4.5V5.5C14.4673 5.5 16.4686 6.68889 17.5757 8.46455L18.4243 7.93545Z" fill="white"/>
<path d="M18.637 11L18.9867 10.6426C18.7923 10.4525 18.4817 10.4525 18.2874 10.6426L18.637 11ZM16.9244 11.9759C16.727 12.169 16.7235 12.4856 16.9166 12.683C17.1097 12.8804 17.4263 12.8839 17.6237 12.6908L16.9244 11.9759ZM19.6504 12.6908C19.8478 12.8839 20.1643 12.8804 20.3574 12.683C20.5505 12.4856 20.547 12.169 20.3496 11.9759L19.6504 12.6908ZM6.42428 15.5355C6.27817 15.3011 5.96978 15.2296 5.73545 15.3757C5.50113 15.5218 5.42961 15.8302 5.57572 16.0645L6.42428 15.5355ZM11.8222 19.5C15.8516 19.5 19.137 16.3017 19.137 12.3333H18.137C18.137 15.7288 15.3202 18.5 11.8222 18.5V19.5ZM19.137 12.3333V11H18.137V12.3333H19.137ZM18.2874 10.6426L16.9244 11.9759L17.6237 12.6908L18.9867 11.3574L18.2874 10.6426ZM18.2874 11.3574L19.6504 12.6908L20.3496 11.9759L18.9867 10.6426L18.2874 11.3574ZM5.57572 16.0645C6.86152 18.1267 9.18008 19.5 11.8222 19.5V18.5C9.53271 18.5 7.53144 17.3111 6.42428 15.5355L5.57572 16.0645Z" fill="white"/>
</svg>
