<svg width="24" height="24" viewBox="0 0 24 24" fill="none" xmlns="http://www.w3.org/2000/svg">
<path d="M12 13.75C12.9665 13.75 13.75 12.9665 13.75 12C13.75 11.0335 12.9665 10.25 12 10.25C11.0335 10.25 10.25 11.0335 10.25 12C10.25 12.9665 11.0335 13.75 12 13.75Z" stroke="white" stroke-miterlimit="10" stroke-linecap="round" stroke-linejoin="round"/>
<path d="M6.1665 12.5134V11.4867C6.1665 10.88 6.66234 10.3784 7.27484 10.3784C8.33067 10.3784 8.76234 9.63171 8.2315 8.71588C7.92817 8.19088 8.109 7.50838 8.63984 7.20504L9.649 6.62754C10.1098 6.35338 10.7048 6.51671 10.979 6.97754L11.0432 7.08838C11.5682 8.00421 12.4315 8.00421 12.9623 7.08838L13.0265 6.97754C13.3007 6.51671 13.8957 6.35338 14.3565 6.62754L15.3657 7.20504C15.8965 7.50838 16.0773 8.19088 15.774 8.71588C15.2432 9.63171 15.6748 10.3784 16.7307 10.3784C17.3373 10.3784 17.839 10.8742 17.839 11.4867V12.5134C17.839 13.12 17.3432 13.6217 16.7307 13.6217C15.6748 13.6217 15.2432 14.3684 15.774 15.2842C16.0773 15.815 15.8965 16.4917 15.3657 16.795L14.3565 17.3725C13.8957 17.6467 13.3007 17.4834 13.0265 17.0225L12.9623 16.9117C12.4373 15.9959 11.574 15.9959 11.0432 16.9117L10.979 17.0225C10.7048 17.4834 10.1098 17.6467 9.649 17.3725L8.63984 16.795C8.109 16.4917 7.92817 15.8092 8.2315 15.2842C8.76234 14.3684 8.33067 13.6217 7.27484 13.6217C6.66234 13.6217 6.1665 13.12 6.1665 12.5134Z" stroke="white" stroke-miterlimit="10" stroke-linecap="round" stroke-linejoin="round"/>
</svg>
