<svg width="24" height="24" viewBox="0 0 24 24" fill="none" xmlns="http://www.w3.org/2000/svg">
<path fill-rule="evenodd" clip-rule="evenodd" d="M11.9983 10.4539C11.1896 10.4539 10.5339 11.146 10.5339 11.9996C10.5339 12.8533 11.1896 13.5453 11.9983 13.5453C12.8071 13.5453 13.4628 12.8533 13.4628 11.9996C13.4628 11.146 12.8071 10.4539 11.9983 10.4539ZM9.55762 11.9996C9.55762 10.5768 10.6504 9.42346 11.9983 9.42346C13.3463 9.42346 14.4391 10.5768 14.4391 11.9996C14.4391 13.4224 13.3463 14.5758 11.9983 14.5758C10.6504 14.5758 9.55762 13.4224 9.55762 11.9996Z" fill="black"/>
<path fill-rule="evenodd" clip-rule="evenodd" d="M10.4369 6.34631C10.2627 6.03995 9.89583 5.94465 9.62336 6.11575L9.61626 6.1202L8.49024 6.80025C8.13398 7.01513 8.01107 7.50229 8.21486 7.87457L7.79219 8.13233L8.21452 7.87396C8.56278 8.50813 8.6564 9.2032 8.3453 9.77298C8.03426 10.3427 7.41781 10.6054 6.72478 10.6054C6.31264 10.6054 5.97629 10.9638 5.97629 11.3955V12.6045C5.97629 13.0362 6.31264 13.3946 6.72478 13.3946C7.41781 13.3946 8.03426 13.6573 8.3453 14.227C8.65636 14.7968 8.56279 15.4917 8.21466 16.1258C8.01115 16.4981 8.13383 16.9848 8.48998 17.1996L9.6234 17.8842C9.89586 18.0553 10.2627 17.9601 10.4369 17.6538L10.5069 17.5262C10.855 16.8922 11.3797 16.4602 12.0024 16.4602C12.6256 16.4602 13.1488 16.8926 13.4937 17.5273C13.4939 17.5276 13.494 17.5278 13.4942 17.5281L13.563 17.6537C13.7373 17.9601 14.1042 18.0554 14.3766 17.8843L14.3837 17.8798L15.5098 17.1998C15.8651 16.9855 15.9898 16.5051 15.7846 16.1245C15.4371 15.4907 15.3439 14.7963 15.6547 14.227C15.9658 13.6573 16.5822 13.3946 17.2752 13.3946C17.6873 13.3946 18.0237 13.0362 18.0237 12.6045V11.3955C18.0237 10.9605 17.6842 10.6054 17.2752 10.6054C16.5822 10.6054 15.9658 10.3427 15.6547 9.77299C15.3437 9.20331 15.4372 8.5084 15.7853 7.87433C15.9889 7.50208 15.8662 7.01524 15.51 6.80041L14.3766 6.11581C14.1042 5.94471 13.7373 6.03995 13.563 6.34631L13.4931 6.47382C13.145 7.10777 12.6203 7.53981 11.9975 7.53981C11.3745 7.53981 10.8514 7.10753 10.5064 6.47297C10.5062 6.47261 10.506 6.47226 10.5058 6.47191L10.4369 6.34631ZM9.12807 5.22774C9.88269 4.7569 10.8399 5.04576 11.2773 5.8217L11.2802 5.82697L11.3518 5.95751L11.3529 5.95942C11.5937 6.40284 11.8448 6.50935 11.9975 6.50935C12.151 6.50935 12.4041 6.40193 12.6482 5.95751C12.6483 5.95744 12.6482 5.95759 12.6482 5.95751L12.7227 5.82168C13.1601 5.04574 14.1173 4.7569 14.8719 5.22774L15.9944 5.90571C16.8227 6.40529 17.1036 7.52581 16.6305 8.39009L16.6302 8.3907C16.3861 8.83509 16.4244 9.11896 16.5006 9.25848C16.5768 9.39807 16.7902 9.57498 17.2752 9.57498C18.22 9.57498 19 10.3878 19 11.3955V12.6045C19 13.6018 18.2299 14.425 17.2752 14.425C16.7902 14.425 16.5768 14.6019 16.5006 14.7415C16.4244 14.881 16.3861 15.1649 16.6302 15.6093L16.6317 15.6121C17.1024 16.4815 16.8233 17.5941 15.9947 18.0942C15.9947 18.0941 15.9946 18.0942 15.9947 18.0942L14.8719 18.7723C14.1172 19.2431 13.1601 18.9543 12.7227 18.1783L12.7198 18.173L12.6482 18.0425L12.6472 18.0406C12.4063 17.5972 12.1552 17.4907 12.0024 17.4907C11.849 17.4907 11.5959 17.5981 11.3518 18.0425C11.3518 18.0424 11.3517 18.0426 11.3518 18.0425L11.2773 18.1783C10.8399 18.9543 9.88275 19.2431 9.12813 18.7723L8.00561 18.0943C8.00569 18.0944 8.00552 18.0942 8.00561 18.0943C7.1775 17.5947 6.89646 16.4741 7.36952 15.6099L7.36986 15.6093C7.61389 15.1649 7.57559 14.881 7.49942 14.7415C7.4232 14.6019 7.20981 14.425 6.72478 14.425C5.77011 14.425 5 13.6018 5 12.6045V11.3955C5 10.3982 5.77011 9.57498 6.72478 9.57498C7.20981 9.57498 7.4232 9.39807 7.49942 9.25848C7.57559 9.11896 7.61389 8.83509 7.36986 8.3907L7.36952 8.39009C6.89646 7.5259 7.17724 6.40553 8.00534 5.90587L9.12807 5.22774Z" fill="black"/>
</svg>
