<svg width="16" height="16" viewBox="0 0 16 16" fill="none" xmlns="http://www.w3.org/2000/svg">
<path d="M12.1487 3.33337H4.62949C4.46873 3.33337 4.31317 3.41573 4.21464 3.55298L3.43679 4.65102C3.1827 5.01337 3.42642 5.52945 3.85164 5.52945H11.3708C11.5316 5.52945 11.6872 5.4471 11.7857 5.30984L12.5635 4.21181C12.8176 3.84945 12.5739 3.33337 12.1487 3.33337Z" fill="url(#paint0_linear_17_1222)"/>
<path d="M3.85164 6.902H11.3708C11.5316 6.902 11.6872 6.98435 11.7857 7.12161L12.5635 8.21965C12.8176 8.582 12.5739 9.09808 12.1487 9.09808H4.62949C4.46873 9.09808 4.31317 9.01573 4.21464 8.87847L3.43679 7.78043C3.1827 7.41808 3.42642 6.902 3.85164 6.902Z" fill="url(#paint1_linear_17_1222)"/>
<path d="M12.1487 10.4706H4.62949C4.46873 10.4706 4.31317 10.553 4.21464 10.6902L3.43679 11.7883C3.1827 12.1506 3.42642 12.6667 3.85164 12.6667H11.3708C11.5316 12.6667 11.6872 12.5844 11.7857 12.4471L12.5635 11.3491C12.8176 10.9867 12.5739 10.4706 12.1487 10.4706Z" fill="url(#paint2_linear_17_1222)"/>
<defs>
<linearGradient id="paint0_linear_17_1222" x1="10.1443" y1="3.33337" x2="6.99115" y2="12.6667" gradientUnits="userSpaceOnUse">
<stop stop-color="#2DD2B6"/>
<stop offset="1" stop-color="#B448EE"/>
</linearGradient>
<linearGradient id="paint1_linear_17_1222" x1="10.1443" y1="3.33337" x2="6.99115" y2="12.6667" gradientUnits="userSpaceOnUse">
<stop stop-color="#2DD2B6"/>
<stop offset="1" stop-color="#B448EE"/>
</linearGradient>
<linearGradient id="paint2_linear_17_1222" x1="10.1443" y1="3.33337" x2="6.99115" y2="12.6667" gradientUnits="userSpaceOnUse">
<stop stop-color="#2DD2B6"/>
<stop offset="1" stop-color="#B448EE"/>
</linearGradient>
</defs>
</svg>
