<svg width="17" height="24" viewBox="0 0 17 24" fill="none" xmlns="http://www.w3.org/2000/svg">
<path d="M10.5714 3.42413H11.4238C11.4238 3.87245 11.4248 4.32076 11.4229 4.76907C10.7593 4.77191 10.0911 4.77474 9.43974 4.91189C7.71414 5.25049 6.12012 6.25399 5.08438 7.68594C4.18774 8.88995 3.70277 10.3862 3.68491 11.8872C3.23753 11.89 2.79015 11.8891 2.34277 11.8891V11.6214C2.43394 9.47824 3.33716 7.36909 4.87667 5.87566C6.372 4.3671 8.45946 3.48939 10.5714 3.42413Z" fill="#8285F1"/>
<path d="M12.6617 11.9951C13.1081 11.996 13.5536 11.9951 14.0001 11.996C13.9954 14.0077 13.2425 16.0034 11.9277 17.5186C10.6419 19.0281 8.80823 20.0467 6.85706 20.3531C6.21982 20.46 5.57225 20.4676 4.92844 20.46C4.9275 20.007 4.9275 19.5539 4.92844 19.1009C6.39088 19.1747 7.89373 18.8805 9.15316 18.1078C11.2782 16.8716 12.6523 14.4646 12.6617 11.9951Z" fill="#8285F1"/>
<path d="M6.16393 8.30735C7.09723 7.08442 8.53053 6.26725 10.0484 6.07147C10.5033 6.00337 10.9648 6.02985 11.4225 6.02512C11.4244 6.47343 11.4244 6.92269 11.4225 7.371C10.5522 7.33885 9.65744 7.42113 8.867 7.81459C7.31622 8.52867 6.28142 10.18 6.25792 11.891C5.81242 11.8872 5.36786 11.8901 4.92236 11.8882C4.93364 10.6009 5.37256 9.32031 6.16393 8.30735Z" fill="#5254C7"/>
<path d="M10.0782 11.9988C10.5284 11.9931 10.9786 11.9969 11.4288 11.996C11.4091 13.5707 10.7483 15.1332 9.60638 16.2143C8.55184 17.2433 7.0988 17.843 5.63072 17.86C5.39575 17.8619 5.16079 17.8581 4.92676 17.8581C4.92676 17.4098 4.92676 16.9615 4.92676 16.5122C5.79896 16.5444 6.69842 16.4621 7.48979 16.0639C9.0293 15.3498 10.0763 13.7032 10.0782 11.9988Z" fill="#5254C7"/>
<path d="M9.80449 8.77458C10.3252 8.59866 10.8806 8.60434 11.4239 8.61663C11.4201 9.06967 11.4333 9.52366 11.4154 9.97576C11.0263 9.98048 10.6259 9.93414 10.2481 10.0524C9.49998 10.2642 8.92195 10.9698 8.86086 11.7482C8.84206 12.0944 8.83737 12.4462 8.73962 12.782C8.47645 13.8555 7.62963 14.7502 6.58731 15.0935C6.05816 15.2921 5.4839 15.2742 4.92844 15.2694C4.9275 14.8164 4.9275 14.3634 4.92844 13.9113C5.39368 13.9065 5.88335 13.9585 6.31663 13.7505C7.02717 13.4535 7.51497 12.7091 7.49993 11.9336C7.48489 10.5253 8.46424 9.17939 9.80449 8.77458Z" fill="#383885"/>
</svg>
