<svg width="24" height="24" viewBox="0 0 24 24" fill="none" xmlns="http://www.w3.org/2000/svg">
<g clip-path="url(#clip0_55_626)">
<path d="M11.5106 5.14049C13.1879 5.01197 14.9042 5.53041 16.2263 6.57111C17.4499 7.51939 18.3378 8.89314 18.6902 10.4017C19.008 11.738 18.9158 13.17 18.4209 14.4519C18.0493 15.4242 17.4502 16.3077 16.6887 17.0167C15.8837 17.7681 14.8958 18.3232 13.8332 18.6136C12.5095 18.9789 11.0753 18.9368 9.77673 18.4889C8.31001 17.9904 7.02814 16.9738 6.20208 15.6637C5.22208 14.1358 4.90052 12.2097 5.31368 10.4435C5.65712 8.92896 6.54032 7.54646 7.76286 6.59025C8.82927 5.74615 10.1535 5.23291 11.5106 5.14049ZM15.2334 8.06572C15.225 8.07283 15.2083 8.08732 15.2001 8.09443C15.1219 8.29568 15.0798 8.51033 14.9988 8.71076C14.9379 8.84994 14.7845 8.89889 14.6505 8.93717C14.5143 8.98338 14.3751 9.02111 14.2409 9.07279C14.181 9.09439 14.184 9.19639 14.2463 9.21307C14.4304 9.27896 14.6209 9.32572 14.8058 9.38998C14.9067 9.42361 14.989 9.5051 15.0243 9.60545C15.0904 9.78865 15.141 9.97705 15.208 10.1597C15.2261 10.2259 15.3338 10.2251 15.3521 10.1594C15.4175 9.97377 15.4648 9.78182 15.5301 9.59588C15.5651 9.49443 15.6493 9.41349 15.7511 9.37986C15.9283 9.31724 16.1093 9.26611 16.2865 9.20377C16.3526 9.19174 16.3704 9.09275 16.3105 9.06076C16.1194 8.98939 15.919 8.94373 15.7267 8.87428C15.6318 8.83928 15.5558 8.7608 15.5214 8.66564C15.456 8.48381 15.4049 8.2965 15.3395 8.11467C15.3275 8.0701 15.2747 8.04795 15.2334 8.06572ZM6.52829 10.1657C6.12114 10.6527 5.83978 11.2499 5.7613 11.8821C5.91689 11.8889 6.0722 11.9119 6.22067 11.96C6.77056 12.1252 7.25345 12.4497 7.71118 12.7874C8.24712 13.1962 8.75599 13.6386 9.27005 14.0742C9.98864 14.7198 10.7997 15.2754 11.7012 15.6317C12.3681 15.8945 13.0859 16.0433 13.8045 16.0192C14.4722 16.0058 15.1336 15.8201 15.7196 15.5019C16.6034 15.0154 17.2848 14.2079 17.6941 13.293C17.9047 12.8186 18.0635 12.3163 18.1248 11.7998C18.1387 11.7216 18.1461 11.6426 18.1551 11.5638C17.9279 11.6677 17.7007 11.7716 17.4729 11.8744C16.9424 12.1069 16.3898 12.3404 15.8011 12.3442C15.3056 12.3519 14.8572 12.103 14.4487 11.849C13.5392 11.2628 12.7285 10.5409 11.86 9.8983C11.0791 9.34623 10.1505 8.95658 9.1831 8.95029C8.17685 8.93142 7.16567 9.38369 6.52829 10.1657ZM8.01579 15.1013C7.86185 15.1516 7.75028 15.3102 7.76177 15.4729C7.76341 15.6697 7.94825 15.8458 8.14677 15.8292C8.36798 15.8357 8.55118 15.606 8.50306 15.3911C8.47435 15.1702 8.22333 15.0285 8.01579 15.1013Z" fill="#29296E"/>
<path d="M15.2335 8.06584C15.2748 8.04806 15.3276 8.07021 15.3396 8.11478C15.4049 8.29662 15.4561 8.48392 15.5214 8.66576C15.5559 8.76091 15.6319 8.83939 15.7268 8.87439C15.919 8.94384 16.1194 8.98951 16.3106 9.06087C16.3704 9.09287 16.3527 9.19185 16.2865 9.20388C16.1093 9.26623 15.9283 9.31736 15.7511 9.37998C15.6494 9.41361 15.5652 9.49455 15.5302 9.59599C15.4648 9.78193 15.4175 9.97388 15.3522 10.1595C15.3338 10.2252 15.2261 10.226 15.2081 10.1598C15.1411 9.97716 15.0905 9.78877 15.0243 9.60556C14.989 9.50521 14.9067 9.42373 14.8058 9.39009C14.621 9.32584 14.4304 9.27908 14.2464 9.21318C14.184 9.1965 14.181 9.09451 14.2409 9.07291C14.3752 9.02123 14.5143 8.98349 14.6505 8.93728C14.7845 8.899 14.9379 8.85005 14.9989 8.71087C15.0798 8.51045 15.1219 8.2958 15.2001 8.09455C15.2083 8.08744 15.225 8.07295 15.2335 8.06584Z" fill="#FAFAFA"/>
<path d="M6.52822 10.1658C7.16561 9.3838 8.17678 8.93153 9.18303 8.9504C10.1504 8.95669 11.079 9.34633 11.86 9.8984C12.7284 10.541 13.5392 11.2629 14.4486 11.8491C14.8571 12.1031 15.3056 12.352 15.801 12.3443C16.3897 12.3405 16.9424 12.107 17.4728 11.8745C17.7006 11.7717 17.9278 11.6678 18.1551 11.5639C18.146 11.6427 18.1387 11.7217 18.1247 11.7999C18.038 12.3342 17.8371 12.8491 17.5412 13.3022C17.2218 13.7799 16.7843 14.1845 16.2648 14.435C15.6949 14.7279 15.0398 14.8301 14.4046 14.7782C13.6105 14.7109 12.8496 14.4213 12.1643 14.0224C11.3965 13.5802 10.7187 12.9986 10.0963 12.3716C9.82424 12.0947 9.53713 11.8297 9.21611 11.6101C8.94104 11.4236 8.63287 11.2757 8.30228 11.2238C7.74502 11.1352 7.18338 11.2817 6.66357 11.4745C6.35432 11.5907 6.0549 11.731 5.76123 11.8822C5.83971 11.25 6.12107 10.6528 6.52822 10.1658Z" fill="#FAFAFA"/>
<path d="M8.01558 15.1014C8.22312 15.0286 8.47413 15.1703 8.50284 15.3912C8.55097 15.6061 8.36777 15.8358 8.14655 15.8293C7.94804 15.846 7.7632 15.6699 7.76155 15.473C7.75007 15.3103 7.86163 15.1517 8.01558 15.1014Z" fill="#FAFAFA"/>
<path d="M6.66357 11.4745C7.18338 11.2817 7.74502 11.1351 8.30229 11.2237C8.63287 11.2757 8.94104 11.4236 9.21611 11.6101C9.53713 11.8297 9.82424 12.0946 10.0963 12.3716C10.7187 12.9986 11.3965 13.5802 12.1643 14.0224C12.8496 14.4213 13.6105 14.7109 14.4046 14.7781C15.0398 14.8301 15.6949 14.7278 16.2648 14.435C16.7843 14.1845 17.2218 13.7798 17.5412 13.3021C17.8371 12.849 18.038 12.3342 18.1247 11.7999C18.0635 12.3164 17.9046 12.8187 17.694 13.2931C17.2847 14.208 16.6033 15.0155 15.7196 15.5019C15.1336 15.8202 14.4721 16.0059 13.8044 16.0193C13.0858 16.0433 12.368 15.8946 11.7011 15.6318C10.7996 15.2755 9.98857 14.7199 9.26998 14.0743C8.75592 13.6387 8.24705 13.1963 7.71111 12.7875C7.25338 12.4498 6.77049 12.1253 6.22061 11.9601C6.07213 11.912 5.91682 11.889 5.76123 11.8822C6.0549 11.731 6.35432 11.5907 6.66357 11.4745Z" fill="#FF4F0A"/>
</g>
<defs>
<clipPath id="clip0_55_626">
<rect width="14" height="14" fill="white" transform="translate(5 5)"/>
</clipPath>
</defs>
</svg>
