<svg width="24" height="24" viewBox="0 0 24 24" fill="none" xmlns="http://www.w3.org/2000/svg">
<rect x="1" y="1" width="22" height="22" fill="white"/>
<path d="M0.870939 0.0366361C1.03494 -0.007819 1.20551 0.000169032 1.37366 0.00121095C8.50098 0.00121095 15.6287 0.00121095 22.756 0.00121095C23.1234 0.000169032 23.4888 0.184935 23.696 0.491259C23.8365 0.683318 23.9074 0.921222 23.9091 1.15843C23.9081 8.39454 23.9088 15.6306 23.9085 22.8667C23.9029 23.1019 23.8258 23.3356 23.6867 23.5252C23.4749 23.8194 23.1189 24.0017 22.757 23.9996C15.548 24 8.33906 24 1.13008 24C0.532218 24.001 0.000436378 23.47 0.00112835 22.8695C0.000782365 15.7015 0.00112801 8.53346 0.000782027 1.36543C0.00112801 1.21435 -0.00786696 1.06119 0.0274237 0.913234C0.11219 0.491259 0.454717 0.137702 0.870939 0.0366361ZM9.6936 1.86381C8.383 2.19653 7.11703 2.83592 6.19879 3.8497C5.4992 4.61342 5.02901 5.5772 4.82211 6.59167C4.64842 7.47765 4.62386 8.40113 4.8093 9.28746C4.95808 9.98033 5.26324 10.6395 5.70264 11.1949C6.14654 11.7578 6.71431 12.2121 7.32601 12.5792C8.46465 13.2665 9.73788 13.6729 10.9776 14.1317C11.5387 14.3421 12.1051 14.5578 12.6116 14.8843C12.9068 15.0826 13.1929 15.3347 13.3164 15.6796C13.423 15.9748 13.4026 16.3089 13.2957 16.601C13.1663 16.9466 12.8466 17.1848 12.5079 17.3008C11.9878 17.4814 11.4294 17.4936 10.8852 17.4773C10.1372 17.4432 9.39605 17.3126 8.67121 17.1286C7.36891 16.7934 6.10918 16.294 4.92452 15.6567C4.92486 17.4786 4.92832 19.301 4.92279 21.1233C7.06133 22.0596 9.40885 22.517 11.7415 22.435C13.087 22.3802 14.4409 22.1298 15.6684 21.5581C16.6158 21.1163 17.4824 20.4686 18.1014 19.6167C18.8595 18.5987 19.2217 17.3203 19.2266 16.0575C19.2369 15.2694 19.1325 14.4717 18.8443 13.735C18.4761 12.7609 17.7765 11.9357 16.9275 11.3463C15.8048 10.5596 14.4966 10.1095 13.2095 9.6747C12.5874 9.4559 11.9532 9.25689 11.3709 8.94119C11.0644 8.76754 10.7561 8.55395 10.5876 8.23408C10.4319 7.93574 10.4423 7.57003 10.5693 7.26371C10.7011 6.96503 10.9876 6.76359 11.291 6.66704C11.738 6.51735 12.2176 6.50103 12.6847 6.52256C14.5744 6.60418 16.4486 7.10499 18.1187 7.99826C18.1187 6.19505 18.1204 4.39219 18.118 2.58933C16.3061 1.87666 14.3561 1.51998 12.4099 1.54602C11.4965 1.5429 10.5807 1.64119 9.6936 1.86381Z" fill="#6273E9"/>
</svg>
