<svg width="20" height="20" viewBox="0 0 20 20" fill="none" xmlns="http://www.w3.org/2000/svg">
<path d="M15.0917 17.4702C14.2279 17.4702 13.3834 17.2141 12.6652 16.7342C11.947 16.2543 11.3872 15.5721 11.0566 14.7741C10.726 13.976 10.6395 13.0978 10.808 12.2506C10.9766 11.4034 11.3925 10.6252 12.0034 10.0143C12.6142 9.40353 13.3924 8.98755 14.2396 8.81903C15.0868 8.65051 15.965 8.737 16.7631 9.06757C17.5612 9.39814 18.2433 9.95794 18.7232 10.6762C19.2031 11.3944 19.4593 12.2389 19.4593 13.1027C19.4585 14.2608 18.9982 15.3713 18.1792 16.1902C17.3603 17.0091 16.2498 17.4695 15.0917 17.4702ZM15.0917 9.27565C14.3348 9.27565 13.5949 9.5001 12.9655 9.92062C12.3362 10.3411 11.8456 10.9388 11.556 11.6381C11.2663 12.3374 11.1905 13.1069 11.3382 13.8493C11.4859 14.5917 11.8504 15.2736 12.3856 15.8088C12.9208 16.344 13.6027 16.7085 14.3451 16.8562C15.0874 17.0038 15.8569 16.928 16.5562 16.6384C17.2555 16.3487 17.8532 15.8582 18.2737 15.2289C18.6943 14.5995 18.9187 13.8596 18.9187 13.1027C18.918 12.0879 18.5146 11.1149 17.797 10.3974C17.0795 9.6798 16.1065 9.27637 15.0917 9.27565Z" fill="url(#paint0_linear_35_744)"/>
<path d="M10.9998 13.1865C10.9281 13.1865 10.8593 13.158 10.8087 13.1073C10.758 13.0567 10.7295 12.9879 10.7295 12.9162L10.8106 7.54056C10.811 7.48758 10.827 7.43589 10.8565 7.39191C11.1306 6.97396 11.4546 6.59096 11.8214 6.25137C11.8477 6.22724 11.8786 6.20857 11.9122 6.19645C11.9458 6.18432 11.9815 6.17899 12.0172 6.18075C12.0529 6.18251 12.0879 6.19133 12.1202 6.2067C12.1524 6.22207 12.1813 6.24368 12.2052 6.27029C12.2527 6.32374 12.2772 6.39386 12.2731 6.4653C12.2691 6.53674 12.2369 6.60365 12.1835 6.65137C11.8701 6.94509 11.5908 7.2733 11.3511 7.62975L11.27 12.9216C11.2686 12.9924 11.2395 13.0597 11.189 13.1093C11.1385 13.1588 11.0705 13.1865 10.9998 13.1865Z" fill="url(#paint1_linear_35_744)"/>
<path d="M18.5487 11.173C18.4932 11.173 18.439 11.1558 18.3935 11.1239C18.3481 11.092 18.3136 11.0469 18.2947 10.9946L16.7406 6.79192C16.391 6.51008 16.0046 6.2773 15.592 6.10003C15.558 6.08714 15.5269 6.06752 15.5007 6.04234C15.4744 6.01716 15.4535 5.98694 15.4392 5.95349C15.4249 5.92005 15.4175 5.88406 15.4175 5.84768C15.4174 5.81131 15.4247 5.7753 15.4389 5.74181C15.4531 5.70832 15.4739 5.67804 15.5001 5.65279C15.5263 5.62754 15.5573 5.60782 15.5913 5.59484C15.6252 5.58185 15.6615 5.57586 15.6978 5.57721C15.7342 5.57857 15.7699 5.58725 15.8028 5.60273C16.2933 5.80806 16.7491 6.08794 17.1541 6.43246C17.1862 6.46259 17.2112 6.49954 17.2271 6.54057L18.8028 10.8108C18.8267 10.8769 18.8241 10.9496 18.7953 11.0137C18.7665 11.0777 18.714 11.1281 18.6487 11.1541C18.6172 11.1676 18.5831 11.1741 18.5487 11.173Z" fill="url(#paint2_linear_35_744)"/>
<path d="M12.0028 6.72161C11.9637 6.72182 11.9249 6.71352 11.8893 6.69728C11.8384 6.67401 11.796 6.63551 11.7679 6.58709C11.7398 6.53868 11.7275 6.48275 11.7326 6.42701L11.838 3.78377C11.8368 3.7748 11.8368 3.76571 11.838 3.75674C11.9677 2.86485 13.0569 2.58917 13.1028 2.57836C14.0623 2.33782 14.8407 3.06485 14.8731 3.09728C14.9018 3.12392 14.9248 3.1561 14.9407 3.19188L15.9461 5.75134C15.9658 5.80089 15.9704 5.85517 15.9593 5.90734C15.9482 5.9595 15.922 6.00723 15.8838 6.0445C15.8457 6.08177 15.7974 6.10693 15.745 6.1168C15.6926 6.12668 15.6384 6.12083 15.5893 6.09999C15.032 5.8362 14.4077 5.74794 13.7991 5.84688C13.1905 5.94582 12.6263 6.2273 12.1812 6.65404C12.1319 6.69749 12.0685 6.72151 12.0028 6.72161ZM12.3785 3.82161L12.2974 5.87836C12.7196 5.58495 13.2023 5.39011 13.7098 5.30825C14.2174 5.22638 14.7368 5.25958 15.2299 5.40539L14.4623 3.45404C14.2973 3.30966 14.1026 3.20335 13.892 3.14263C13.6813 3.08191 13.4599 3.06827 13.2434 3.10269C13.2434 3.10269 12.465 3.29998 12.3785 3.82161Z" fill="url(#paint3_linear_35_744)"/>
<path d="M4.90787 17.4702C4.04393 17.4708 3.19924 17.2151 2.48064 16.7355C1.76205 16.2559 1.20182 15.574 0.870837 14.7759C0.539852 13.9779 0.452974 13.0997 0.621192 12.2523C0.78941 11.4049 1.20517 10.6264 1.81587 10.0153C2.42658 9.40421 3.2048 8.98797 4.0521 8.81923C4.8994 8.65049 5.77771 8.73682 6.57594 9.06731C7.37416 9.3978 8.05645 9.9576 8.53648 10.6759C9.01651 11.3942 9.27274 12.2387 9.27274 13.1027C9.27131 14.2601 8.81107 15.3698 7.99288 16.1885C7.1747 17.0072 6.06531 17.4681 4.90787 17.4702ZM4.90787 9.27565C4.15084 9.27511 3.41066 9.49911 2.78095 9.91931C2.15124 10.3395 1.6603 10.937 1.37023 11.6363C1.08016 12.3355 1.00398 13.1051 1.15135 13.8476C1.29871 14.5902 1.66298 15.2723 2.19809 15.8078C2.73321 16.3433 3.41511 16.7081 4.15756 16.856C4.9 17.0039 5.66963 16.9282 6.36908 16.6386C7.06854 16.3491 7.6664 15.8585 8.08704 15.2291C8.50767 14.5997 8.73219 13.8597 8.73219 13.1027C8.73148 12.0884 8.32842 11.1158 7.61145 10.3983C6.89448 9.68083 5.92217 9.27708 4.90787 9.27565Z" fill="url(#paint4_linear_35_744)"/>
<path d="M9.00014 13.1865C8.92846 13.1865 8.85971 13.158 8.80903 13.1073C8.75834 13.0567 8.72987 12.9879 8.72987 12.9162L8.64878 7.62975C8.40821 7.27316 8.12805 6.94494 7.81365 6.65137C7.76034 6.60365 7.72812 6.53674 7.72407 6.4653C7.72001 6.39386 7.74445 6.32374 7.79203 6.27029C7.81588 6.24368 7.84477 6.22207 7.87703 6.2067C7.90929 6.19133 7.94428 6.18251 7.97997 6.18075C8.01566 6.17899 8.05135 6.18432 8.08496 6.19645C8.11858 6.20857 8.14946 6.22724 8.17581 6.25137C8.54256 6.59096 8.86656 6.97396 9.14068 7.39191C9.17023 7.43589 9.18621 7.48758 9.18662 7.54056L9.2677 12.9135C9.2677 12.9852 9.23923 13.054 9.18854 13.1046C9.13786 13.1553 9.06911 13.1838 8.99743 13.1838L9.00014 13.1865Z" fill="url(#paint5_linear_35_744)"/>
<path d="M1.4514 11.173C1.41709 11.1741 1.38296 11.1676 1.35141 11.1541C1.28617 11.1281 1.2336 11.0777 1.20485 11.0137C1.17609 10.9496 1.1734 10.8769 1.19735 10.8108L2.77573 6.54058C2.79167 6.49954 2.81661 6.4626 2.8487 6.43247C3.25373 6.08795 3.70956 5.80807 4.20005 5.60274C4.26539 5.57798 4.33777 5.57949 4.40202 5.60694C4.46627 5.6344 4.51739 5.68566 4.54466 5.74999C4.57193 5.81432 4.57322 5.8867 4.54828 5.95197C4.52334 6.01723 4.47409 6.0703 4.41086 6.10004C3.99827 6.27731 3.61182 6.51009 3.26222 6.79193L1.70546 10.9946C1.68657 11.0469 1.65205 11.092 1.6066 11.1239C1.56114 11.1559 1.50695 11.173 1.4514 11.173Z" fill="url(#paint6_linear_35_744)"/>
<path d="M7.99748 6.72161C7.93086 6.72217 7.86637 6.69811 7.8164 6.65404C7.37134 6.2273 6.80714 5.94582 6.19853 5.84688C5.58993 5.74794 4.96562 5.8362 4.40829 6.09998C4.35933 6.12003 4.30556 6.12526 4.25365 6.11503C4.20174 6.10479 4.15398 6.07955 4.11628 6.04243C4.07858 6.00531 4.05261 5.95794 4.04158 5.90619C4.03055 5.85445 4.03495 5.8006 4.05424 5.75134L5.05965 3.19188C5.07553 3.1561 5.09852 3.12392 5.12721 3.09728C5.15965 3.06485 5.93802 2.33782 6.90019 2.57836C6.94343 2.57836 8.03262 2.86485 8.16235 3.75674C8.16354 3.76571 8.16354 3.7748 8.16235 3.78377L8.26775 6.44053C8.27282 6.49626 8.26047 6.5522 8.23239 6.60061C8.20431 6.64902 8.16189 6.68752 8.111 6.7108C8.07436 6.72243 8.03566 6.72612 7.99748 6.72161ZM5.76505 5.26485C6.45861 5.26593 7.13508 5.4801 7.70289 5.87836L7.62181 3.82161C7.53532 3.29998 6.77316 3.10539 6.76775 3.10539C6.54995 3.06879 6.32675 3.08083 6.11414 3.14064C5.90154 3.20044 5.7048 3.30655 5.53802 3.45134L4.77046 5.40539C5.09427 5.31455 5.42875 5.26729 5.76505 5.26485Z" fill="url(#paint7_linear_35_744)"/>
<path d="M11.0812 7.81349C11.0461 7.81392 11.0112 7.80749 10.9785 7.79457C10.6699 7.66153 10.3375 7.5929 10.0015 7.5929C9.66546 7.5929 9.33299 7.66153 9.02444 7.79457C8.9913 7.81139 8.95505 7.8212 8.91795 7.82337C8.88086 7.82555 8.84371 7.82006 8.80883 7.80723C8.77395 7.79441 8.74209 7.77453 8.71524 7.74883C8.68839 7.72314 8.66713 7.69219 8.65279 7.6579C8.63844 7.62362 8.63132 7.58675 8.63187 7.54959C8.63241 7.51244 8.64062 7.47579 8.65596 7.44195C8.67131 7.4081 8.69347 7.37779 8.72107 7.35289C8.74866 7.328 8.78109 7.30907 8.81633 7.29727C9.19038 7.13872 9.5925 7.05701 9.99876 7.05701C10.405 7.05701 10.8071 7.13872 11.1812 7.29727C11.2366 7.32235 11.2819 7.36536 11.3098 7.41936C11.3377 7.47336 11.3466 7.53519 11.335 7.59486C11.3235 7.65454 11.2921 7.70857 11.2461 7.74824C11.2 7.78791 11.1419 7.8109 11.0812 7.81349Z" fill="url(#paint8_linear_35_744)"/>
<path d="M11.0326 10.9108C11.0048 10.9147 10.9766 10.9147 10.9488 10.9108C10.3464 10.7026 9.69165 10.7026 9.08931 10.9108C9.05543 10.9222 9.01962 10.9268 8.98396 10.9242C8.9483 10.9217 8.91351 10.9121 8.88158 10.896C8.84966 10.8799 8.82124 10.8577 8.79798 10.8305C8.77472 10.8034 8.75708 10.7719 8.74607 10.7379C8.73298 10.7033 8.7271 10.6665 8.7288 10.6296C8.7305 10.5927 8.73974 10.5566 8.75595 10.5234C8.77215 10.4902 8.79499 10.4607 8.82304 10.4367C8.85109 10.4127 8.88376 10.3947 8.91904 10.3838C9.63221 10.1406 10.4059 10.1406 11.119 10.3838C11.1803 10.4039 11.2323 10.4453 11.2657 10.5004C11.2992 10.5555 11.3118 10.6207 11.3014 10.6843C11.2909 10.748 11.2581 10.8057 11.2088 10.8473C11.1595 10.8888 11.097 10.9113 11.0326 10.9108Z" fill="url(#paint9_linear_35_744)"/>
<defs>
<linearGradient id="paint0_linear_35_744" x1="10.7241" y1="13.1027" x2="19.4593" y2="13.1027" gradientUnits="userSpaceOnUse">
<stop stop-color="#BAFF00"/>
<stop offset="1" stop-color="#06FFCC"/>
</linearGradient>
<linearGradient id="paint1_linear_35_744" x1="10.7295" y1="9.68346" x2="12.2736" y2="9.68346" gradientUnits="userSpaceOnUse">
<stop stop-color="#BAFF00"/>
<stop offset="1" stop-color="#06FFCC"/>
</linearGradient>
<linearGradient id="paint2_linear_35_744" x1="15.4175" y1="8.37507" x2="18.819" y2="8.37507" gradientUnits="userSpaceOnUse">
<stop stop-color="#BAFF00"/>
<stop offset="1" stop-color="#06FFCC"/>
</linearGradient>
<linearGradient id="paint3_linear_35_744" x1="11.7314" y1="4.62564" x2="15.9652" y2="4.62564" gradientUnits="userSpaceOnUse">
<stop stop-color="#BAFF00"/>
<stop offset="1" stop-color="#06FFCC"/>
</linearGradient>
<linearGradient id="paint4_linear_35_744" x1="0.537598" y1="13.1027" x2="9.27274" y2="13.1027" gradientUnits="userSpaceOnUse">
<stop stop-color="#BAFF00"/>
<stop offset="1" stop-color="#06FFCC"/>
</linearGradient>
<linearGradient id="paint5_linear_35_744" x1="7.72363" y1="9.68346" x2="9.2677" y2="9.68346" gradientUnits="userSpaceOnUse">
<stop stop-color="#BAFF00"/>
<stop offset="1" stop-color="#06FFCC"/>
</linearGradient>
<linearGradient id="paint6_linear_35_744" x1="1.18115" y1="8.37916" x2="4.56609" y2="8.37916" gradientUnits="userSpaceOnUse">
<stop stop-color="#BAFF00"/>
<stop offset="1" stop-color="#06FFCC"/>
</linearGradient>
<linearGradient id="paint7_linear_35_744" x1="4.03564" y1="4.62657" x2="8.26887" y2="4.62657" gradientUnits="userSpaceOnUse">
<stop stop-color="#BAFF00"/>
<stop offset="1" stop-color="#06FFCC"/>
</linearGradient>
<linearGradient id="paint8_linear_35_744" x1="8.63184" y1="7.44042" x2="11.34" y2="7.44042" gradientUnits="userSpaceOnUse">
<stop stop-color="#BAFF00"/>
<stop offset="1" stop-color="#06FFCC"/>
</linearGradient>
<linearGradient id="paint9_linear_35_744" x1="8.72852" y1="10.5632" x2="11.3049" y2="10.5632" gradientUnits="userSpaceOnUse">
<stop stop-color="#BAFF00"/>
<stop offset="1" stop-color="#06FFCC"/>
</linearGradient>
</defs>
</svg>
