<svg width="24" height="24" viewBox="0 0 24 24" fill="none" xmlns="http://www.w3.org/2000/svg">
<path d="M15.5235 12.9041C15.2785 13.1432 15.1385 13.4874 15.1735 13.8549C15.226 14.4849 15.8035 14.9457 16.4335 14.9457H17.5418V15.6399C17.5418 16.8474 16.556 17.8333 15.3485 17.8333H8.65183C7.44433 17.8333 6.4585 16.8474 6.4585 15.6399V11.7141C6.4585 10.5066 7.44433 9.52075 8.65183 9.52075H15.3485C16.556 9.52075 17.5418 10.5066 17.5418 11.7141V12.5541H16.3635C16.0368 12.5541 15.7393 12.6824 15.5235 12.9041Z" stroke="white" stroke-linecap="round" stroke-linejoin="round"/>
<path d="M6.4585 12.2391V9.57333C6.4585 8.87917 6.88433 8.26081 7.53183 8.01581L12.1635 6.26581C12.8868 5.99164 13.6627 6.52832 13.6627 7.30416V9.52082" stroke="white" stroke-linecap="round" stroke-linejoin="round"/>
<path d="M18.1595 13.1493V14.351C18.1595 14.6718 17.9028 14.9343 17.5761 14.946H16.4328C15.8028 14.946 15.2253 14.4851 15.1728 13.8551C15.1378 13.4876 15.2778 13.1435 15.5228 12.9043C15.7386 12.6826 16.0361 12.5543 16.3628 12.5543H17.5761C17.9028 12.566 18.1595 12.8285 18.1595 13.1493Z" stroke="white" stroke-linecap="round" stroke-linejoin="round"/>
<path d="M9.0835 12H13.1668" stroke="white" stroke-linecap="round" stroke-linejoin="round"/>
</svg>
