<svg width="24" height="24" viewBox="0 0 24 24" fill="none" xmlns="http://www.w3.org/2000/svg">
<g clip-path="url(#clip0_55_617)">
<path d="M5.02441 11.9888C6.34944 10.666 7.66155 9.32904 8.9825 8.00171C8.98386 8.72402 8.98148 9.446 8.98352 10.1683C10.2824 10.169 11.5809 10.1649 12.8797 10.1704C11.5826 11.1492 10.2793 12.1202 8.98216 13.0991C8.98352 14.0625 8.98284 15.0259 8.9825 15.9894C8.05426 15.0558 7.12943 14.1188 6.2012 13.1852C5.8112 12.7842 5.40897 12.3953 5.02441 11.9888Z" fill="#8D8DFD"/>
<path d="M15.0383 8C15.9896 8.95348 16.9345 9.9128 17.8835 10.8683C18.2524 11.2484 18.6369 11.6133 18.9957 12.0026C17.6747 13.3302 16.3602 14.6648 15.0383 15.9914C15.0359 15.2797 15.041 14.5684 15.0355 13.8567C13.7265 13.8502 12.4174 13.8595 11.1084 13.8519C12.379 12.9111 13.6432 11.9618 14.9138 11.0213C14.957 10.9791 15.0427 10.9572 15.0362 10.8841C15.0403 9.92274 15.0362 8.96137 15.0383 8Z" fill="#4D5299"/>
</g>
<defs>
<clipPath id="clip0_55_617">
<rect width="14" height="8" fill="white" transform="translate(5 8)"/>
</clipPath>
</defs>
</svg>
