<svg id="Layer_1" data-name="Layer 1" xmlns="http://www.w3.org/2000/svg" xmlns:xlink="http://www.w3.org/1999/xlink" viewBox="0 0 796.72 230.6"><defs><style>.cls-1{font-size:69.28px;font-family:Mont-HeavyDEMO, Mont;font-weight:800;}.cls-1,.cls-3{fill:#04d000;}.cls-2,.cls-4{fill:none;stroke:#000;stroke-miterlimit:10;}.cls-2{stroke-width:6px;}.cls-4{stroke-width:5px;}</style></defs><title>svg logo</title><text class="cls-1" transform="translate(190.27 193.48)">Pepe Super Grow</text><path class="cls-2" d="M175.15,440.73V487c-.67-.52-1.35-1-2.05-1.45a23.35,23.35,0,0,0-5.36-3.19l0-.06,0,0a1.26,1.26,0,0,0-1-.41c-.19-.08-.43,0-.58-.24a1.5,1.5,0,0,0-1-.46c-.38,0-.68-.32-1-.43a22.34,22.34,0,0,0-13.76-.54V440.73Z" transform="translate(-81.64 -384.7)"/><path class="cls-2" d="M217,417.54v65.68a18.29,18.29,0,0,0-8.06-8.94c-4.42-2.36-9.15-2.59-14-1.85-.94.15-1.87.33-2.79.55V417.54Z" transform="translate(-81.64 -384.7)"/><path class="cls-3" d="M175.15,440.73V487c-.67-.52-1.35-1-2.05-1.45a23.35,23.35,0,0,0-5.36-3.19l0-.06,0,0a1.26,1.26,0,0,0-1-.41c-.19-.08-.43,0-.58-.24a1.5,1.5,0,0,0-1-.46c-.38,0-.68-.32-1-.43a22.34,22.34,0,0,0-13.76-.54V440.73Z" transform="translate(-81.64 -384.7)"/><path class="cls-4" d="M132.39,463.91v18.36c-.17.21-.34.43-.52.64a64.67,64.67,0,0,0-9.49,17.47,1.63,1.63,0,0,1-1.41,1.19,9.83,9.83,0,0,0-5.76,3.1,5,5,0,0,0-1.17,1.17,48.54,48.54,0,0,0-6.47,10.68V463.91Z" transform="translate(-81.64 -384.7)"/><path class="cls-3" d="M132.39,463.91v18.36c-.17.21-.34.43-.52.64a64.67,64.67,0,0,0-9.49,17.47,1.63,1.63,0,0,1-1.41,1.19,9.83,9.83,0,0,0-5.76,3.1,5,5,0,0,0-1.17,1.17,48.54,48.54,0,0,0-6.47,10.68V463.91Z" transform="translate(-81.64 -384.7)"/><path class="cls-3" d="M217,417.54v65.68a18.29,18.29,0,0,0-8.06-8.94c-4.42-2.36-9.15-2.59-14-1.85-.94.15-1.87.33-2.79.55V417.54Z" transform="translate(-81.64 -384.7)"/><path class="cls-3" d="M232.82,391l-16.95-6.23a.84.84,0,0,0-1.09,1l2.2,7.55a.84.84,0,0,1-.53,1L181.92,406a.85.85,0,0,0-.57.8V417a.85.85,0,0,1-.58.8l-41.6,13.31a.85.85,0,0,0-.59.8v12.56a.83.83,0,0,1-.61.8L95,457.51a.84.84,0,0,0-.57,1l.69,2.44a.84.84,0,0,0,1,.57l46-13.15a.84.84,0,0,0,.61-.81V435a.83.83,0,0,1,.58-.8L185,420.83a.83.83,0,0,0,.58-.8V409.81a.85.85,0,0,1,.57-.8l31.43-10.58a.85.85,0,0,1,1.08.56l2.15,7.37a.84.84,0,0,0,1.47.27l10.94-14.36A.83.83,0,0,0,232.82,391Z" transform="translate(-81.64 -384.7)"/><image width="165" height="165" transform="translate(0 65.6)" xlink:href="../r2/2.png"/></svg>