<svg width="14" height="14" viewBox="0 0 14 14" fill="none" xmlns="http://www.w3.org/2000/svg">
<path d="M9.33317 7.52496V9.97496C9.33317 12.0166 8.5165 12.8333 6.47484 12.8333H4.02484C1.98317 12.8333 1.1665 12.0166 1.1665 9.97496V7.52496C1.1665 5.48329 1.98317 4.66663 4.02484 4.66663H6.47484C8.5165 4.66663 9.33317 5.48329 9.33317 7.52496Z" stroke="#2B2B2B" stroke-linecap="round" stroke-linejoin="round"/>
<path d="M12.8332 4.02496V6.47496C12.8332 8.51663 12.0165 9.33329 9.97484 9.33329H9.33317V7.52496C9.33317 5.48329 8.5165 4.66663 6.47484 4.66663H4.6665V4.02496C4.6665 1.98329 5.48317 1.16663 7.52484 1.16663H9.97484C12.0165 1.16663 12.8332 1.98329 12.8332 4.02496Z" stroke="#2B2B2B" stroke-linecap="round" stroke-linejoin="round"/>
</svg>
