<svg width="24" height="24" viewBox="0 0 24 24" fill="none" xmlns="http://www.w3.org/2000/svg">
<path d="M14.7415 16.0717H9.25821C9.01321 16.0717 8.73904 15.8792 8.65737 15.6459L6.24237 8.89088C5.89821 7.92254 6.30071 7.62504 7.12904 8.22004L9.40404 9.84754C9.78321 10.11 10.2149 9.97588 10.3782 9.55004L11.4049 6.81421C11.7315 5.93921 12.274 5.93921 12.6007 6.81421L13.6274 9.55004C13.7907 9.97588 14.2224 10.11 14.5957 9.84754L16.7307 8.32504C17.6407 7.67171 18.0782 8.00421 17.7049 9.06004L15.3482 15.6575C15.2607 15.8792 14.9865 16.0717 14.7415 16.0717Z" stroke="#F4C315" stroke-linecap="round" stroke-linejoin="round"/>
<path d="M8.7915 17.8334H15.2082" stroke="#F4C315" stroke-linecap="round" stroke-linejoin="round"/>
<path d="M10.5415 13.1666H13.4582" stroke="#F4C315" stroke-linecap="round" stroke-linejoin="round"/>
</svg>
