<svg width="24" height="24" viewBox="0 0 24 24" fill="none" xmlns="http://www.w3.org/2000/svg">
<path d="M22 10V15C22 20 20 22 15 22H9C4 22 2 20 2 15V9C2 4 4 2 9 2H14" stroke="url(#paint0_linear_22_494)" stroke-width="1.5" stroke-linecap="round" stroke-linejoin="round"/>
<path d="M22 10H18C15 10 14 9 14 6V2L22 10Z" stroke="url(#paint1_linear_22_494)" stroke-width="1.5" stroke-linecap="round" stroke-linejoin="round"/>
<path d="M7 13H13" stroke="url(#paint2_linear_22_494)" stroke-width="1.5" stroke-linecap="round" stroke-linejoin="round"/>
<path d="M7 17H11" stroke="url(#paint3_linear_22_494)" stroke-width="1.5" stroke-linecap="round" stroke-linejoin="round"/>
<defs>
<linearGradient id="paint0_linear_22_494" x1="2" y1="12" x2="22" y2="12" gradientUnits="userSpaceOnUse">
<stop stop-color="#BAFF00"/>
<stop offset="1" stop-color="#06FFCC"/>
</linearGradient>
<linearGradient id="paint1_linear_22_494" x1="14" y1="6" x2="22" y2="6" gradientUnits="userSpaceOnUse">
<stop stop-color="#BAFF00"/>
<stop offset="1" stop-color="#06FFCC"/>
</linearGradient>
<linearGradient id="paint2_linear_22_494" x1="7" y1="13.5" x2="13" y2="13.5" gradientUnits="userSpaceOnUse">
<stop stop-color="#BAFF00"/>
<stop offset="1" stop-color="#06FFCC"/>
</linearGradient>
<linearGradient id="paint3_linear_22_494" x1="7" y1="17.5" x2="11" y2="17.5" gradientUnits="userSpaceOnUse">
<stop stop-color="#BAFF00"/>
<stop offset="1" stop-color="#06FFCC"/>
</linearGradient>
</defs>
</svg>
