<svg
    width="34"
    height="25"
    viewBox="0 0 34 25"
    fill="none"
    xmlns="http://www.w3.org/2000/svg"
    >
    <path
        fill-rule="evenodd"
        clip-rule="evenodd"
        d="M20.4122 0.896141C20.9248 0.383578 21.7558 0.383578 22.2683 0.896141L32.8908 11.5186C33.137 11.7648 33.2753 12.0986 33.2753 12.4467C33.2753 12.7948 33.137 13.1287 32.8908 13.3748L22.2683 23.9973C21.7558 24.5099 20.9248 24.5099 20.4122 23.9973C19.8996 23.4847 19.8996 22.6537 20.4122 22.1411L30.1066 12.4467L20.4122 2.7523C19.8996 2.23973 19.8996 1.4087 20.4122 0.896141Z"
        fill="currentColor"
    />
    <path
        fill-rule="evenodd"
        clip-rule="evenodd"
        d="M14.0428 12.4468C14.0428 11.7219 14.6304 11.1343 15.3553 11.1343H31.6653C32.3902 11.1343 32.9778 11.7219 32.9778 12.4468C32.9778 13.1717 32.3902 13.7593 31.6653 13.7593H15.3553C14.6304 13.7593 14.0428 13.1717 14.0428 12.4468Z"
        fill="currentColor"
    />
    <path
        fill-rule="evenodd"
        clip-rule="evenodd"
        d="M0.900269 12.4468C0.900269 11.7219 1.48789 11.1343 2.21277 11.1343H8.28527C9.01014 11.1343 9.59777 11.7219 9.59777 12.4468C9.59777 13.1717 9.01014 13.7593 8.28527 13.7593H2.21277C1.48789 13.7593 0.900269 13.1717 0.900269 12.4468Z"
        fill="currentColor"
    />
</svg>