<svg width="20" height="20" viewBox="0 0 20 20" fill="none" xmlns="http://www.w3.org/2000/svg">
<path d="M12.5135 7.1284C12.0211 4.78326 10.9711 3.2996 9.99988 3.2996C9.0287 3.2996 7.97864 4.78326 7.48628 7.1284H12.5135Z" fill="white"/>
<path d="M7.19973 10C7.19962 10.6403 7.24125 11.2798 7.32434 11.9144H12.6754C12.7585 11.2798 12.8001 10.6403 12.8 10C12.8001 9.35973 12.7585 8.72017 12.6754 8.0856H7.32434C7.24125 8.72017 7.19962 9.35973 7.19973 10Z" fill="white"/>
<path d="M7.48628 12.8716C7.97864 15.2167 9.0287 16.7004 9.99988 16.7004C10.9711 16.7004 12.0211 15.2167 12.5135 12.8716H7.48628Z" fill="white"/>
<path d="M13.4693 7.1284H16.4094C15.9677 6.09738 15.2964 5.18689 14.4496 4.46994C13.6027 3.75299 12.6038 3.24955 11.533 3C12.4183 3.79878 13.1127 5.27574 13.4693 7.1284Z" fill="white"/>
<path d="M16.745 8.0856H13.6181C13.6951 8.72068 13.7336 9.36004 13.7334 10C13.7335 10.64 13.6948 11.2793 13.6177 11.9144H16.7445C17.0849 10.662 17.0853 9.338 16.745 8.0856Z" fill="white"/>
<path d="M11.533 17C12.604 16.7506 13.6031 16.2472 14.4501 15.5303C15.2971 14.8133 15.9685 13.9027 16.4104 12.8716H13.4702C13.1127 14.7243 12.4183 16.2012 11.533 17Z" fill="white"/>
<path d="M6.5305 12.8716H3.59034C4.0322 13.9027 4.70358 14.8133 5.5506 15.5303C6.39763 16.2472 7.39673 16.7506 8.46774 17C7.58149 16.2012 6.88705 14.7243 6.5305 12.8716Z" fill="white"/>
<path d="M8.4668 3C7.39579 3.24942 6.3967 3.7528 5.54967 4.46975C4.70264 5.18671 4.03127 6.09727 3.58941 7.1284H6.52957C6.88705 5.27574 7.58149 3.79878 8.4668 3Z" fill="white"/>
<path d="M6.26635 10C6.26629 9.36003 6.30495 8.72067 6.38209 8.0856H3.25526C2.91491 9.338 2.91491 10.662 3.25526 11.9144H6.38209C6.30495 11.2793 6.26629 10.64 6.26635 10Z" fill="white"/>
</svg>
