<svg width="111" height="32" viewBox="0 0 111 32" fill="none" xmlns="http://www.w3.org/2000/svg">
<g clip-path="url(#clip0_55_589)">
<path d="M39.3555 27.1528C38.1076 29.4453 35.1359 31.174 31.5118 31.6129C31.3336 31.6254 31.1553 31.6325 31.0002 31.6325H0L1.72382 29.9252L18.1972 13.4337L20.8962 10.7327C24.4521 7.17409 29.2747 5.17453 34.3035 5.17367L34.3409 5.20934L12.4143 27.1528H39.3555ZM9.08971 5.17367L17.6571 13.9154L21.6556 9.11278C19.1296 6.58889 15.7057 5.17204 12.1363 5.17367H9.08971ZM36.0344 4.49217L14.1079 26.4356L14.1453 26.4713C19.1741 26.4705 23.9966 24.4709 27.5526 20.9123L30.2515 18.2113L46.7196 1.72515L48.4434 0H17.445C17.2863 0 17.1134 1.08994e-07 16.9351 0.0196243C13.3146 0.469198 10.3483 2.19613 9.09149 4.49038H36.0344V4.49217ZM39.3555 26.4713L30.7899 17.7296L26.7914 22.5304C28.041 23.781 29.5245 24.773 31.1573 25.4498C32.79 26.1266 34.5399 26.4749 36.3071 26.4749L39.3555 26.4713Z" fill="url(#paint0_linear_55_589)"/>
<path d="M40.8369 29.3008L47.2402 22.6464V22.5376L40.8369 22.8106V20.1345H51.818V22.4787L45.3595 29.1064V29.2116L52.0088 28.9387V31.6379H40.8369V29.3008Z" fill="url(#paint1_linear_55_589)"/>
<path d="M54.6274 14.9573H58.0056V24.5H60.1037L63.8633 20.1381H66.4785V22.6732L62.9916 25.7827L66.8065 29.1099V31.645H64.2448L60.1037 27.0922H58.0056V31.645H54.6274V14.9573Z" fill="url(#paint2_linear_55_589)"/>
<path d="M68.1685 29.8181L69.5375 27.1189C71.0902 28.2642 73.7891 28.9992 75.75 28.9992C77.6575 28.9992 79.1567 28.3463 79.1567 27.0368C79.1567 23.9826 68.5571 25.4829 68.5571 19.5653C68.5571 16.4023 71.3362 14.6022 75.7768 14.6022C77.957 14.6022 80.9821 15.1481 82.6988 16.2381L81.4991 19.0194C80.1639 18.1274 77.522 17.6011 75.8053 17.6011C74.0334 17.6011 72.6162 18.2291 72.6162 19.4297C72.6162 22.0469 83.2425 20.5198 83.2425 26.8459C83.2425 30.4461 79.9464 32 75.8053 32C73.2918 32 70.1294 31.3987 68.1685 29.8181Z" fill="url(#paint3_linear_55_589)"/>
<path d="M85.0342 25.8915C85.0342 22.1557 87.2411 19.783 91.3822 19.783C95.5233 19.783 97.3469 22.1557 97.3469 25.8915V26.5729H88.4337C88.5139 28.0448 89.7136 29.0813 91.7298 29.0813C93.0383 29.0813 94.3735 28.8083 95.3539 28.3177L96.7159 30.9081C95.4074 31.6217 93.7192 31.9999 91.6478 31.9999C87.4871 31.9999 85.0342 29.736 85.0342 25.8915ZM94.0526 24.7515C94.0258 23.6614 93.1274 22.5161 91.302 22.5161C89.4213 22.5161 88.4676 23.6614 88.3856 24.7515H94.0526Z" fill="url(#paint4_linear_55_589)"/>
<path d="M98.7729 28.3463C98.7729 26.0823 100.408 24.582 103.788 24.582C104.985 24.582 106.729 24.8014 107.629 25.2367V24.4999C107.629 23.2511 106.294 22.5375 104.55 22.5375C102.969 22.5375 101.698 22.8372 100.736 23.3831L99.6661 20.8748C101.001 20.138 102.745 19.783 104.597 19.783C108.602 19.783 111 21.1745 111 24.1199V31.6449H108.494L108.248 29.7913C107.294 31.1811 105.574 31.9999 103.435 31.9999C100.021 31.9999 98.7729 30.3908 98.7729 28.3463ZM107.629 27.4721V26.9815C106.916 26.7103 105.476 26.5194 104.495 26.5194C102.969 26.5194 102.153 26.9815 102.153 27.7682C102.153 28.6121 102.969 29.1312 104.278 29.1312C105.904 29.1366 107.214 28.4551 107.622 27.4721H107.629Z" fill="url(#paint5_linear_55_589)"/>
</g>
<defs>
<linearGradient id="paint0_linear_55_589" x1="0" y1="15.8225" x2="48.447" y2="15.8225" gradientUnits="userSpaceOnUse">
<stop stop-color="#BAFF00"/>
<stop offset="1" stop-color="#06FFCC"/>
</linearGradient>
<linearGradient id="paint1_linear_55_589" x1="40.8405" y1="23.3012" x2="111" y2="23.3012" gradientUnits="userSpaceOnUse">
<stop stop-color="#BAFF00"/>
<stop offset="1" stop-color="#06FFCC"/>
</linearGradient>
<linearGradient id="paint2_linear_55_589" x1="40.8405" y1="23.3011" x2="111" y2="23.3011" gradientUnits="userSpaceOnUse">
<stop stop-color="#BAFF00"/>
<stop offset="1" stop-color="#06FFCC"/>
</linearGradient>
<linearGradient id="paint3_linear_55_589" x1="40.8405" y1="23.3011" x2="111" y2="23.3011" gradientUnits="userSpaceOnUse">
<stop stop-color="#BAFF00"/>
<stop offset="1" stop-color="#06FFCC"/>
</linearGradient>
<linearGradient id="paint4_linear_55_589" x1="40.8406" y1="23.3011" x2="111" y2="23.3011" gradientUnits="userSpaceOnUse">
<stop stop-color="#BAFF00"/>
<stop offset="1" stop-color="#06FFCC"/>
</linearGradient>
<linearGradient id="paint5_linear_55_589" x1="40.8405" y1="23.3011" x2="111" y2="23.3011" gradientUnits="userSpaceOnUse">
<stop stop-color="#BAFF00"/>
<stop offset="1" stop-color="#06FFCC"/>
</linearGradient>
<clipPath id="clip0_55_589">
<rect width="111" height="32" fill="white"/>
</clipPath>
</defs>
</svg>
