<svg width="24" height="24" viewBox="0 0 24 24" fill="none" xmlns="http://www.w3.org/2000/svg">
<g clip-path="url(#clip0_17_2089)">
<path d="M12 22.5C11.9882 22.5 11.9766 22.4996 11.9642 22.4992C11.6287 22.4831 11.3445 22.2457 11.2691 21.9187L7.55269 5.81249L5.98538 13.6472C5.91506 13.9976 5.60738 14.25 5.25 14.25H0.75C0.335438 14.25 0 13.9142 0 13.5C0 13.0858 0.335438 12.75 0.75 12.75H4.63556L6.76462 2.10281C6.83419 1.75631 7.13588 1.50506 7.48894 1.49999C7.81331 1.49381 8.151 1.73699 8.23088 2.08124L12.1311 18.984L15.7888 8.01262C15.8921 7.70137 16.185 7.51612 16.5161 7.49999C16.845 7.50731 17.1306 7.72781 17.2215 8.04374L18.5655 12.75H23.25C23.6646 12.75 24 13.0858 24 13.5C24 13.9142 23.6646 14.25 23.25 14.25H18C17.6653 14.25 17.3709 14.028 17.2785 13.7062L16.4451 10.7872L12.7112 21.9874C12.6094 22.2945 12.3216 22.5 12 22.5Z" fill="url(#paint0_linear_17_2089)"/>
</g>
<defs>
<linearGradient id="paint0_linear_17_2089" x1="-8.9407e-08" y1="11.9999" x2="24" y2="11.9999" gradientUnits="userSpaceOnUse">
<stop stop-color="#BAFF00"/>
<stop offset="1" stop-color="#06FFCC"/>
</linearGradient>
<clipPath id="clip0_17_2089">
<rect width="24" height="24" fill="white"/>
</clipPath>
</defs>
</svg>
