<svg width="24" height="24" viewBox="0 0 24 24" fill="none" xmlns="http://www.w3.org/2000/svg">
<path d="M11.7082 17.6875C8.41234 17.6875 5.729 15.0042 5.729 11.7084C5.729 8.41252 8.41234 5.72919 11.7082 5.72919C15.004 5.72919 17.6873 8.41252 17.6873 11.7084C17.6873 15.0042 15.004 17.6875 11.7082 17.6875ZM11.7082 6.60419C8.89067 6.60419 6.604 8.89669 6.604 11.7084C6.604 14.52 8.89067 16.8125 11.7082 16.8125C14.5257 16.8125 16.8123 14.52 16.8123 11.7084C16.8123 8.89669 14.5257 6.60419 11.7082 6.60419Z" fill="#969696"/>
<path d="M17.8332 18.2709C17.7223 18.2709 17.6115 18.23 17.524 18.1425L16.3573 16.9759C16.1882 16.8067 16.1882 16.5267 16.3573 16.3575C16.5265 16.1884 16.8065 16.1884 16.9757 16.3575L18.1423 17.5242C18.3115 17.6934 18.3115 17.9734 18.1423 18.1425C18.0548 18.23 17.944 18.2709 17.8332 18.2709Z" fill="#969696"/>
</svg>
