<svg width="24" height="24" viewBox="0 0 24 24" fill="none" xmlns="http://www.w3.org/2000/svg">
<path d="M11.8477 15.3543H15.301C15.2485 15.4009 15.196 15.4418 15.1435 15.4884L12.6527 17.3551C11.8302 17.9676 10.4885 17.9676 9.66019 17.3551L7.16352 15.4884C6.61519 15.0801 6.16602 14.1759 6.16602 13.4934V9.17091C6.16602 8.45925 6.70852 7.67175 7.37352 7.42091L10.2785 6.33008C10.7569 6.14925 11.5502 6.14925 12.0285 6.33008L14.9277 7.42091C15.4819 7.63091 15.9543 8.21425 16.1002 8.80925H11.8418C11.7135 8.80925 11.5968 8.81509 11.486 8.81509C10.4068 8.87926 10.1268 9.27008 10.1268 10.5009V13.6684C10.1327 15.0101 10.4769 15.3543 11.8477 15.3543Z" stroke="white" stroke-linecap="round" stroke-linejoin="round"/>
<path d="M10.1328 11.545H17.8328" stroke="white" stroke-miterlimit="10" stroke-linecap="round" stroke-linejoin="round"/>
<path d="M17.8328 10.495V13.7325C17.8211 15.0275 17.4653 15.3484 16.1178 15.3484H11.8478C10.477 15.3484 10.1328 15.0042 10.1328 13.6567V10.4892C10.1328 9.26421 10.4128 8.87337 11.492 8.80337C11.6028 8.80337 11.7195 8.79755 11.8478 8.79755H16.1178C17.4886 8.80338 17.8328 9.14172 17.8328 10.495Z" stroke="white" stroke-linecap="round" stroke-linejoin="round"/>
<path d="M11.603 13.9017H12.3789" stroke="white" stroke-miterlimit="10" stroke-linecap="round" stroke-linejoin="round"/>
<path d="M13.604 13.9017H15.5115" stroke="white" stroke-miterlimit="10" stroke-linecap="round" stroke-linejoin="round"/>
</svg>
