<svg width="25" height="24" viewBox="0 0 25 24" fill="none" xmlns="http://www.w3.org/2000/svg">
<path d="M12.1564 2.9505H12.7268C14.5877 3.01485 16.4297 3.65377 17.9091 4.79315C19.4469 5.95953 20.5781 7.64187 21.1028 9.50175C21.5827 11.1738 21.6028 12.9848 21.105 14.6551C20.7534 15.8444 20.1291 16.9603 19.2602 17.8474C18.5242 17.0838 17.7934 16.3144 17.066 15.5422C17.822 14.4948 18.2883 13.2141 18.2487 11.9115C18.2041 10.7061 17.814 9.5052 17.0958 8.5336C16.2739 7.41549 15.0333 6.62143 13.6805 6.3307C12.3872 6.03997 10.9965 6.22613 9.81954 6.83402C8.72215 7.38791 7.8172 8.31182 7.27938 9.41901C6.65966 10.6515 6.51247 12.1115 6.86185 13.4456C7.17514 14.6786 7.90082 15.8036 8.90543 16.5833C10.2411 17.6434 12.0647 18.0473 13.7194 17.6359C14.0419 17.5601 14.3603 17.4165 14.6994 17.4624C15.011 17.49 15.2475 17.7221 15.444 17.9456C15.9623 18.5415 16.5557 19.0643 17.1175 19.6171C15.9932 20.526 14.5568 20.9713 13.1278 21.0495H12.2131C10.3459 20.9392 8.50564 20.2974 6.99931 19.181C5.31771 17.9479 4.12523 16.0794 3.6636 14.046C3.3188 12.5567 3.36405 10.9813 3.7833 9.5121C4.34002 7.53213 5.60007 5.76475 7.27824 4.58458C8.69866 3.57448 10.4186 3.01313 12.1564 2.9505Z" fill="#00E8B5"/>
<path d="M11.9833 8.45262C12.8184 8.3423 13.6942 8.53019 14.3998 8.99501C15.0516 9.41962 15.5619 10.062 15.8139 10.8003C16.1364 11.7208 16.0682 12.7722 15.6232 13.6404C15.181 14.5201 14.3545 15.1958 13.4049 15.4503C12.5343 15.6882 11.575 15.5859 10.7771 15.1607C10.0944 14.8016 9.5354 14.2104 9.21637 13.5065C8.80399 12.6079 8.78452 11.5369 9.16024 10.6233C9.62417 9.46214 10.7433 8.59626 11.9833 8.45262Z" fill="#C74AE3"/>
</svg>
