<svg width="24" height="24" viewBox="0 0 24 24" fill="none" xmlns="http://www.w3.org/2000/svg">
<path d="M10 12C10 13.1046 9.10457 14 8 14C6.89543 14 6 13.1046 6 12C6 10.8954 6.89543 10 8 10C9.10457 10 10 10.8954 10 12Z" stroke="url(#paint0_linear_17_2234)"/>
<path d="M13 8L10 11" stroke="url(#paint1_linear_17_2234)" stroke-linecap="round"/>
<path d="M13 16L10 13" stroke="url(#paint2_linear_17_2234)" stroke-linecap="round"/>
<path d="M17 17C17 18.1046 16.1046 19 15 19C13.8954 19 13 18.1046 13 17C13 15.8954 13.8954 15 15 15C16.1046 15 17 15.8954 17 17Z" stroke="url(#paint3_linear_17_2234)"/>
<path d="M17 7C17 8.10457 16.1046 9 15 9C13.8954 9 13 8.10457 13 7C13 5.89543 13.8954 5 15 5C16.1046 5 17 5.89543 17 7Z" stroke="url(#paint4_linear_17_2234)"/>
<defs>
<linearGradient id="paint0_linear_17_2234" x1="6" y1="12" x2="10" y2="12" gradientUnits="userSpaceOnUse">
<stop stop-color="#BAFF00"/>
<stop offset="1" stop-color="#06FFCC"/>
</linearGradient>
<linearGradient id="paint1_linear_17_2234" x1="10" y1="9.5" x2="13" y2="9.5" gradientUnits="userSpaceOnUse">
<stop stop-color="#BAFF00"/>
<stop offset="1" stop-color="#06FFCC"/>
</linearGradient>
<linearGradient id="paint2_linear_17_2234" x1="10" y1="14.5" x2="13" y2="14.5" gradientUnits="userSpaceOnUse">
<stop stop-color="#BAFF00"/>
<stop offset="1" stop-color="#06FFCC"/>
</linearGradient>
<linearGradient id="paint3_linear_17_2234" x1="13" y1="17" x2="17" y2="17" gradientUnits="userSpaceOnUse">
<stop stop-color="#BAFF00"/>
<stop offset="1" stop-color="#06FFCC"/>
</linearGradient>
<linearGradient id="paint4_linear_17_2234" x1="13" y1="7" x2="17" y2="7" gradientUnits="userSpaceOnUse">
<stop stop-color="#BAFF00"/>
<stop offset="1" stop-color="#06FFCC"/>
</linearGradient>
</defs>
</svg>
