<svg width="20" height="20" viewBox="0 0 20 20" fill="none" xmlns="http://www.w3.org/2000/svg">
<path d="M17 5.42062C16.4794 5.66154 15.9246 5.82123 15.3462 5.89877C15.9412 5.524 16.3954 4.93508 16.6089 4.22523C16.0541 4.57415 15.4416 4.82062 14.7889 4.95815C14.2621 4.36646 13.5114 4 12.6924 4C11.1034 4 9.82412 5.36062 9.82412 7.02862C9.82412 7.26862 9.84338 7.49938 9.89062 7.71908C7.5045 7.59631 5.39313 6.38985 3.97475 4.552C3.72712 5.00523 3.58188 5.524 3.58188 6.08246C3.58188 7.13108 4.09375 8.06062 4.85675 8.59877C4.39562 8.58954 3.94325 8.44831 3.56 8.22585C3.56 8.23508 3.56 8.24708 3.56 8.25908C3.56 9.73046 4.55487 10.9526 5.8595 11.2342C5.62587 11.3015 5.37125 11.3338 5.107 11.3338C4.92325 11.3338 4.73775 11.3228 4.56362 11.2822C4.9355 12.4812 5.99075 13.3628 7.2455 13.3914C6.269 14.1972 5.02912 14.6828 3.68688 14.6828C3.4515 14.6828 3.22575 14.6717 3 14.6412C4.27137 15.5062 5.77813 16 7.403 16C12.6845 16 15.572 11.3846 15.572 7.384C15.572 7.25015 15.5676 7.12092 15.5615 6.99262C16.1311 6.56615 16.6097 6.03354 17 5.42062Z" fill="white"/>
</svg>
